
<svg width="91px" height="18px" viewBox="0 0 91 18" version="1.1" xmlns="http://www.w3.org/2000/svg" xmlns:xlink="http://www.w3.org/1999/xlink">
  <!-- Generator: Sketch 46.2 (44496) - http://www.bohemiancoding.com/sketch -->
  <desc>Created with Sketch.</desc>
  <defs></defs>
  <g id="Page-1" stroke="none" stroke-width="1" fill="none" fill-rule="evenodd">
    <g id="内页" transform="translate(-22.000000, -19.000000)">
      <g id="Page-1" transform="translate(22.000000, 19.000000)">
        <path d="M5.04,17.9999995 L0,17.9999995 L0,11.7070651 C0,8.82028121 2.25652799,6.47999954 5.04,6.47999954 L5.04,17.9999995 Z" id="Fill-1" fill="#006595"></path>
        <path d="M20.16,18 L15.12,18 L15.12,11.7461 C15.12,8.83775834 17.376528,6.48 20.16,6.48 L20.16,6.48 L20.16,18 Z" id="Fill-3" fill="#1B98E0"></path>
        <path d="M51.12,18 L46.08,18 L46.08,11.7461 C46.08,8.83775834 48.336528,6.48 51.12,6.48 L51.12,18 Z" id="Fill-5" fill="#1B98E0"></path>
        <polygon id="Fill-7" fill="#1B98E0" points="21.6 18 26.64 18 26.64 6.48 21.6 6.48"></polygon>
        <path d="M59.76,18 L54.72,18 L54.72,11.7461 C54.72,8.83775834 56.976528,6.48 59.76,6.48 L59.76,6.48 L59.76,18 Z" id="Fill-9" fill="#1B98E0"></path>
        <polygon id="Fill-10" fill="#1B98E0" points="61.2 18 66.24 18 66.24 6.48 61.2 6.48"></polygon>
        <polygon id="Fill-11" fill="#1B98E0" points="75.6 11.52 80.64 11.52 80.64 6.48 75.6 6.48"></polygon>
        <polygon id="Fill-12" fill="#1B98E0" points="75.6 18 75.6 14.4 80.64 14.4 80.64 18"></polygon>
        <path d="M74.88,18 L69.84,18 L69.84,11.7461 C69.84,8.83775834 72.096528,6.48 74.88,6.48 L74.88,6.48 L74.88,18 Z" id="Fill-13" fill="#1B98E0"></path>
        <path d="M89.64,17.82 L84.6,17.82 L84.6,11.5661 C84.6,8.65775834 86.856528,6.3 89.64,6.3 L89.64,6.3 L89.64,17.82 Z" id="Fill-14" fill="#1B98E0"></path>
        <polygon id="Fill-15" fill="#1B98E0" points="28.08 18 31.68 18 31.68 14.4 28.08 14.4"></polygon>
        <polygon id="Fill-16" fill="#006595" points="6.3 0 6.3 11.1529619 6.3 18 11.34 18 11.34 11.1529619 11.34 0"></polygon>
        <polyline id="Fill-17" fill="#006595" points="40.7020205 17.976457 47.2727547 2.05805094 90.18 2.05805094 90.18 0 42.8701284 0 42.8603622 0 42.8603622 0.0294287552 38.2038134 10.4407338 33.5746101 0.117518829 33.5746101 0 33.5355451 0 15.3 0 15.3 2.05805094 29.1348721 2.05805094 35.7142005 18 35.9888275 18 40.4187993 18 40.6942075 18"></polyline>
        <polygon id="Fill-18" fill="#1B98E0" points="75.6 11.52 80.64 11.52 80.64 6.48 75.6 6.48"></polygon>
        <polygon id="Fill-19" fill="#1B98E0" points="75.6 17.28 80.64 17.28 80.64 12.24 75.6 12.24"></polygon>
      </g>
    </g>
  </g>
</svg>
