<?xml version="1.0" standalone="no"?>
<!DOCTYPE svg PUBLIC "-//W3C//DTD SVG 1.1//EN" "http://www.w3.org/Graphics/SVG/1.1/DTD/svg11.dtd" >
<!--
2013-9-30: Created.
-->
<svg>
<metadata>
Created by iconfont
</metadata>
<defs>

<font id="iconfont" horiz-adv-x="1024" >
  <font-face
    font-family="iconfont"
    font-weight="500"
    font-stretch="normal"
    units-per-em="1024"
    ascent="896"
    descent="-128"
  />
    <missing-glyph />
    
    <glyph glyph-name="bullet-subtitle" unicode="&#58920;" d="M110.964364-127.72072700000001c-60.509091 0-109.847273 48.872727-109.847273 108.916363V786.990545C1.117091 847.034182 50.455273 896 110.964364 896h1081.902545c60.509091 0 109.847273-48.872727 109.847273-108.916364v-805.794909c0-60.043636-49.338182-108.916364-109.847273-108.916363H110.964364z m0 927.650909c-6.609455 0-12.101818-5.771636-12.101819-12.939637v-805.794909c0-7.168 5.492364-13.032727 12.101819-13.032727h1081.902545c6.609455 0 12.101818 5.864727 12.101818 13.032727V786.990545c0 7.168-5.492364 13.032727-12.101818 13.032728H110.964364zM1003.054545 375.90109099999995a51.572364 51.572364 0 0 0-50.26909-52.689455h-80.058182a51.572364 51.572364 0 0 0-50.269091 52.689455c0 29.137455 22.434909 52.782545 50.269091 52.782545h80.058182c27.834182 0 50.269091-23.645091 50.26909-52.782545zM1096.610909 625.850182c0-28.858182-22.341818-52.410182-49.989818-52.410182H232.541091a51.293091 51.293091 0 0 0-50.082909 52.410182c0 29.044364 22.434909 52.503273 50.082909 52.503273h814.08c27.648 0 50.082909-23.458909 50.082909-52.503273zM768.744727 375.90109099999995c0-28.858182-22.341818-52.410182-50.082909-52.410182H232.541091a51.293091 51.293091 0 0 0-50.082909 52.410182c0 29.044364 22.434909 52.503273 50.082909 52.503273H718.661818c27.648 0 50.082909-23.458909 50.082909-52.503273zM1096.610909 160.02327300000002c0-29.044364-22.341818-52.503273-49.989818-52.503273H560.500364a51.293091 51.293091 0 0 0-50.082909 52.503273c0 28.951273 22.341818 52.410182 50.082909 52.410182h486.120727c27.648 0 50.082909-23.458909 50.082909-52.410182z"  horiz-adv-x="1303" />

    
    <glyph glyph-name="quote" unicode="&#59058;" d="M788.288069 437.365418c-3.442402-99.842962-20.061918-175.8521-49.92097-228.090858-29.827329-52.204989-76.305897-91.499947-139.435703-117.915573l75.743078-120.500445c104.442724 47.073108 180.749644 116.493178 228.948389 208.292953 36.744879 68.857251 55.085596 180.185802 55.085596 333.957001L958.70846 797.1414580000001 626.473683 797.1414580000001l0-359.77604L788.288069 437.365418zM254.647189 437.365418c-3.442402-99.842962-20.061918-175.8521-49.92097-228.089835-29.827329-52.206012-76.305897-91.50097-139.435703-117.916597l75.743078-120.500445C245.476319 17.93164999999999 321.782216 87.35274300000003 369.981984 179.15149499999995c36.744879 68.857251 55.085596 180.185802 55.085596 333.957001L425.06758 797.1414580000001 92.832803 797.1414580000001l0-359.77604L254.647189 437.365418z"  horiz-adv-x="1024" />

    
    <glyph glyph-name="lijitoudi" unicode="&#58919;" d="M452.83 293.405a31.378 31.378 0 0 0-22.216 53.53L902.098 818.42a31.378 31.378 0 0 0 44.369-44.368L474.983 302.567a31.252 31.252 0 0 0-22.153-9.162zM659.422-128a31.378 31.378 0 0 0-28.303 17.823L438.96 291.71 17.367 503.386a31.378 31.378 0 0 0 4.142 57.798l941.337 313.34a31.315 31.315 0 1 0 39.724-39.662l-313.34-941.337a31.378 31.378 0 0 0-27.8-21.4c-0.753-0.125-1.38-0.125-2.008-0.125zM113.07 525.539l363.607-182.557c6.213-3.138 11.233-8.22 14.245-14.496L654.15-12.97l269.034 808.107-810.114-269.6zM354.052 33.408a31.378 31.378 0 0 0-30.75 37.528l49.389 246.756a31.378 31.378 0 1 0 61.5-12.3l-34.515-172.39 84.97 56.605a31.378 31.378 0 0 0 34.768-52.213l-148.041-98.652a30.939 30.939 0 0 0-17.32-5.334z"  horiz-adv-x="1044" />

    
    <glyph glyph-name="search" unicode="&#58914;" d="M946.222-32.994 727.729 187.332c-2.543 2.549-5.353 4.496-8.036 6.617 36.908 57.103 58.459 125.121 58.459 198.387 0 201.282-161.79 364.428-361.498 364.428-199.596 0-361.498-163.146-361.498-364.428 0-201.31 161.902-364.42 361.498-364.42 72.648 0 140.196 21.784 196.926 58.999 2.066-2.768 3.961-5.521 6.463-8.05l218.521-220.353c14.919-14.997 34.35-22.472 53.809-22.472 19.472 0 38.916 7.474 53.822 22.436C975.879-111.528 975.879-62.967 946.222-32.994M416.654 142.993c-136.347 0-247.334 111.872-247.334 249.343 0 137.45 110.988 249.351 247.334 249.351s247.334-111.901 247.334-249.351C663.989 254.866 553 142.993 416.654 142.993"  horiz-adv-x="1024" />

    
    <glyph glyph-name="liandong1" unicode="&#59202;" d="M959.744 353.472c0-15.36-15.36-30.72-30.72-30.72s-30.72 10.24-30.72 30.72c0 143.36-81.92 276.48-204.8 337.92a28.288 28.288 0 0 0-15.36 25.6c0 10.112 5.12 20.48 15.36 30.72 10.24 10.176 20.48 5.12 30.72 0 143.424-76.864 240.64-230.4 235.52-394.24zM248.192-9.92a448.192 448.192 0 0 1 266.24-87.04c92.16 0 179.2 30.72 256 81.856 10.24 5.12 15.36 15.36 15.36 30.72s-10.176 20.48-20.48 25.6c-10.368 4.992-20.544 5.12-30.72-5.184-66.56-46.08-143.36-66.56-220.16-66.56-81.856 0-158.72 25.6-225.28 71.68-15.36 10.24-35.904 5.184-46.08-5.12-10.24-15.36-5.184-35.84 5.12-45.952z m56.32 757.568a445.44 445.44 0 0 1-240.64-394.176c0-15.36 15.36-30.72 30.72-30.72s35.84 10.24 35.84 30.72c0 143.36 81.92 271.36 204.8 337.92a28.288 28.288 0 0 1 15.36 25.6c0 10.112-5.12 20.48-15.36 30.72-5.12 5.12-20.48 5.12-30.72 0z m591.36-716.672c-71.68 0-127.936 56.32-127.936 128 0 71.616 56.32 127.872 128 127.872 71.616 0 127.872-56.32 127.872-127.936 0-71.68-56.32-127.936-127.936-127.936z m-767.872 0c-71.68 0-127.936 56.32-127.936 128 0 71.616 56.32 127.872 128 127.872 71.616 0 127.872-56.32 127.872-127.936 0-71.68-56.32-127.936-127.936-127.936z m384 609.152c-71.68 0-128 56.32-128 127.936C384 839.68 440.32 896 512 896s127.936-56.32 127.936-128c0-71.616-56.32-127.872-128-127.872z"  horiz-adv-x="1024" />

    
    <glyph glyph-name="xiazuan" unicode="&#59366;" d="M656.64 737.152l-14.08 6.4v-82.9952l261.0688-159.1808-379.2896-202.112-386.304 202.112 261.0688 152.832h7.0144V749.9008L53.7088 539.648c-21.0688-6.4-28.1088-19.1488-28.1088-38.2976 0-12.7488 7.04-25.5232 28.1088-38.2976l407.3984-221.2608c14.0544-6.4 42.1632-12.7744 63.232-12.7744 21.0944 0 42.1888 6.4 63.2576 12.7744l407.3984 221.2608c21.0688 6.4 28.1088 25.5488 28.1088 38.2976 0 19.1488-7.04 31.9232-28.1088 38.2976L656.6144 737.152z m-91.392-635.1104L563.2 182.6304h-76.8v-80.5888l-82.7904 82.9696c-8.2432 24.6272-49.2032 6.4-56.2176 0-7.04-6.4-14.0544-19.1488-14.0544-25.5232 0-6.4 7.0144-19.1488 14.0544-25.5232l151.808-146.7904c7.04-6.4 16.384-12.7744 23.3984-12.7744 14.0544 0 20.7616 6.4 27.8016 12.7744l150.912 146.7904c14.0544 12.7488 14.0544 38.272 0 51.0464-14.08 12.7744-42.1632 12.7744-56.2432 0l-79.8208-82.944zM524.8 421.376a38.4 38.4 0 0 1 38.4 38.4V806.4a38.4 38.4 0 0 1-76.8 0v-346.624a38.4 38.4 0 0 1 38.4-38.4z"  horiz-adv-x="1049" />

    
    <glyph glyph-name="icon_home" unicode="&#59293;" d="M441.6 742.4l-300.8-256c-19.2-19.2-12.8-51.2 12.8-57.6L256 384v-236.8c0-44.8 38.4-83.2 89.6-83.2H448v160c0 38.4 25.6 64 64 64s64-25.6 64-64V64h108.8c44.8 0 83.2 38.4 83.2 83.2V384l102.4 44.8c25.6 12.8 32 44.8 6.4 57.6L576 742.4c-38.4 32-89.6 32-134.4 0z"  horiz-adv-x="1024" />

    
    <glyph glyph-name="icon_mail_line" unicode="&#59297;" d="M736 704h-448c-96-12.8-160-89.6-160-192v-256c0-108.8 83.2-192 192-192h384c108.8 0 192 83.2 192 192v256c0 96-70.4 172.8-160 192z m-32-64c12.8 0 25.6 0 38.4-6.4 6.4-6.4 6.4-12.8 6.4-12.8 0-6.4 6.4-25.6-12.8-38.4l-179.2-153.6c-25.6-19.2-64-19.2-89.6 0l-179.2 153.6c-19.2 12.8-12.8 32-12.8 38.4 0 0 6.4 12.8 19.2 19.2h409.6z m128-384c0-70.4-57.6-128-128-128h-384c-70.4 0-128 57.6-128 128v256c0 25.6 6.4 51.2 19.2 70.4 6.4-19.2 12.8-38.4 32-51.2l185.6-147.2c19.2-25.6 51.2-32 83.2-32s64 6.4 83.2 32l179.2 147.2c19.2 12.8 25.6 32 32 57.6 12.8-19.2 25.6-44.8 25.6-76.8v-256z"  horiz-adv-x="1024" />

    
    <glyph glyph-name="icon_phone" unicode="&#59295;" d="M672 832h-320C300.8 832 256 787.2 256 736v-640c0-51.2 44.8-96 96-96h320c51.2 0 96 44.8 96 96v640c0 51.2-44.8 96-96 96zM512 64c-19.2 0-32 12.8-32 32s12.8 32 32 32 32-12.8 32-32-12.8-32-32-32z m192 128H320V704h384v-512z"  horiz-adv-x="1024" />

    
    <glyph glyph-name="pro-home" unicode="&#58915;" d="M610 78h101.862C740.657 78 764 101.35 764 130.155V437h119L512 768 141 437h119v-306.845C260 101.351 283.343 78 312.138 78H415V277c0 16.569 13.431 30 30 30h135c16.569 0 30-13.431 30-30v-199zM475 247v-169c0-33.137-26.863-60-60-60H312.138C250.2 18 200 68.218 200 130.155V377h-59c-55.117 0-81.072 68.078-39.944 104.771l371 331c22.759 20.305 57.13 20.305 79.888 0l371-331C964.072 445.078 938.117 377 883 377h-59v-246.845C824 68.218 773.799 18 711.862 18H610c-33.137 0-60 26.863-60 60V247h-75z"  horiz-adv-x="1024" />

    
    <glyph glyph-name="pro-ab" unicode="&#58916;" d="M207 612h522v-60H207zM498 552v-522h-60V552zM333 90h264v-60H333zM207 570h79v-60h-79zM650 570h79v-60h-79zM577 364h299v-34H577zM744 330v-300h-34V330zM649 64h151v-34H649zM577 340h45v-34h-45zM831 340h45v-34h-45z"  horiz-adv-x="1024" />

    
    <glyph glyph-name="weiduxuanze" unicode="&#58913;" d="M563.746133 808.209067L96.529067 605.320533l467.217066-202.9568 467.217067 202.9568-467.217067 202.888534z m27.2384 62.600533L1058.133333 667.989333a68.266667 68.266667 0 0 0 0-125.201066L590.984533 339.7632a68.266667 68.266667 0 0 0-54.408533 0L69.358933 542.72a68.266667 68.266667 0 0 0 0 125.201067L536.576 870.8096a68.266667 68.266667 0 0 0 54.408533 0zM546.133333 145.066667l-136.533333 68.266666-136.533333 68.266667-69.2224-39.3216-107.3152-46.557867 467.217066-202.9568 467.217067 202.9568L819.2 281.6l-273.066667-136.533333z m375.808 172.4416l136.192-59.1872a68.266667 68.266667 0 0 0 0-125.201067l-467.1488-202.9568a68.266667 68.266667 0 0 0-54.408533 0l-467.217067 202.9568a68.266667 68.266667 0 0 0 0 125.201067l136.874667 59.392L409.6 213.333333l136.533333-68.266666 375.808 172.4416zM546.133333 349.866667L409.6 418.133333 273.066667 486.4l-69.2224-39.3216-107.3152-46.557867 467.217066-202.9568 467.217067 202.9568L819.2 486.4 546.133333 349.866667z m375.808 172.4416l136.192-59.1872a68.266667 68.266667 0 0 0 0-125.201067l-467.1488-202.9568a68.266667 68.266667 0 0 0-54.408533 0L69.358933 337.92a68.266667 68.266667 0 0 0 0 125.201067l136.874667 59.392L409.6 418.133333l136.533333-68.266666 375.808 172.4416z"  horiz-adv-x="1160" />

    
    <glyph glyph-name="clock" unicode="&#58912;" d="M515.090286-109.71428600000002c-272.676571 0-494.518857 221.842286-494.518857 494.518857 0 272.676571 221.842286 494.518857 494.518857 494.518857s494.518857-221.842286 494.518857-494.518857C1009.536 112.12800000000004 787.693714-109.71428600000002 515.090286-109.71428600000002zM515.090286 806.107429C282.715429 806.107429 93.714286 617.106286 93.714286 384.804571c0-232.374857 189.001143-421.376 421.376-421.376s421.376 189.001143 421.376 421.376C936.393143 617.106286 747.465143 806.107429 515.090286 806.107429zM698.459429 88.72228600000005L459.428571 332.507429 459.428571 713.142857 532.571429 713.142857 532.571429 362.34971399999995 750.683429 139.84914300000003Z"  horiz-adv-x="1026" />

    
    <glyph glyph-name="video" unicode="&#58928;" d="M993.81032505 754.74530873L27.85759232 754.74530873c-15.62716843 0-28.41112803-12.78395961-28.41112803-28.41112804l0-667.61609784c0-15.62018247 12.78395961-28.40996409 28.41112803-28.4099641l965.95273273 0c15.6329893 0 28.40996409 12.78978162 28.40996409 28.4099641L1022.22028914 726.3330167500001C1022.21679616 741.9601851699999 1009.44331435 754.74530873 993.81032505 754.74530873L993.81032505 754.74530873zM153.04259584 129.74473898999997c0-7.7996123-6.39547278-14.20556402-14.20672797-14.20556402l-63.91979804 0c-7.81009123 0-14.20672797 6.40595171-14.20672796 14.20556402l0 63.92096312c0 7.82755613 6.39547278 14.20556402 14.20672796 14.20556402l63.91979804 0c7.81009123 0 14.20672797-6.37917298 14.20672797-14.20556402L153.04259584 129.74473898999997 153.04259584 129.74473898999997zM153.04259584 285.99895723c0-7.79379143-6.39547278-14.20556402-14.20672797-14.20556402l-63.91979804 0c-7.81009123 0-14.20672797 6.41177259-14.20672796 14.20556402l0 63.92096312c0 7.82755613 6.39547278 14.20323499 14.20672796 14.20323499l63.91979804 0c7.81009123 0 14.20672797-6.37684395 14.20672797-14.20323499L153.04259584 285.99895723 153.04259584 285.99895723zM153.04259584 435.13001757c0-7.81009123-6.39547278-14.20789305-14.20672797-14.20789306l-63.91979804 0c-7.81009123 0-14.20672797 6.39663673-14.20672796 14.20789306l0 63.92096312c0 7.81009123 6.39547278 14.20556402 14.20672796 14.20556402l63.91979804 0c7.81009123 0 14.20672797-6.39547278 14.20672797-14.20556402L153.04259584 435.13001757 153.04259584 435.13001757zM153.04259584 591.38539861c0-7.81009123-6.39547278-14.20556402-14.20672797-14.20556402l-63.91979804 0c-7.81009123 0-14.20672797 6.39430883-14.20672796 14.20556402l0 63.92212708c0 7.81009123 6.39547278 14.20556402 14.20672796 14.20556402l63.91979804 0c7.81009123 0 14.20672797-6.39547278 14.20672797-14.20556402L153.04259584 591.38539861 153.04259584 591.38539861zM802.0392869 124.99674453c0-15.62018247-12.77348067-28.40996409-28.40879901-28.40996408L248.03859342 96.58678044999999c-15.62483939 0-28.40996409 12.78978162-28.40996409 28.40996408L219.62863047 660.63650475c0 15.62600334 12.78512355 28.41112803 28.40996409 28.41112803l525.59189447 0c15.63648227 0 28.40879901-12.78512355 28.408799-28.41112803L802.0392869 124.99674453 802.0392869 124.99674453zM960.9585755 129.74473898999997c0-7.7996123-6.39663673-14.20556402-14.20672796-14.20556402l-63.91979805 0c-7.81125518 0-14.20556402 6.40595171-14.20556402 14.20556402l0 63.92096312c0 7.82755613 6.39430883 14.20556402 14.20556402 14.20556402l63.91979805 0c7.81009123 0 14.20672797-6.37917298 14.20672796-14.20556402L960.9585755 129.74473898999997 960.9585755 129.74473898999997zM960.9585755 285.99895723c0-7.79379143-6.39663673-14.20556402-14.20672796-14.20556402l-63.91979805 0c-7.81125518 0-14.20556402 6.41177259-14.20556402 14.20556402l0 63.92096312c0 7.82755613 6.39430883 14.20323499 14.20556402 14.20323499l63.91979805 0c7.81009123 0 14.20672797-6.37684395 14.20672796-14.20323499L960.9585755 285.99895723 960.9585755 285.99895723zM960.9585755 435.13001757c0-7.81009123-6.39663673-14.20789305-14.20672796-14.20789306l-63.91979805 0c-7.81125518 0-14.20556402 6.39663673-14.20556402 14.20789306l0 63.92096312c0 7.81009123 6.39430883 14.20556402 14.20556402 14.20556402l63.91979805 0c7.81009123 0 14.20672797-6.39547278 14.20672796-14.20556402L960.9585755 435.13001757 960.9585755 435.13001757zM960.9585755 591.38539861c0-7.81009123-6.39663673-14.20556402-14.20672796-14.20556402l-63.91979805 0c-7.81125518 0-14.20556402 6.39430883-14.20556402 14.20556402l0 63.92212708c0 7.81009123 6.39430883 14.20556402 14.20556402 14.20556402l63.91979805 0c7.81009123 0 14.20672797-6.39547278 14.20672796-14.20556402L960.9585755 591.38539861 960.9585755 591.38539861zM396.84365085 261.15639295999995l262.89316522 131.17064533L396.84365085 523.9051867000001 396.84365085 261.15639295999995zM396.84365085 261.15639295999995"  horiz-adv-x="1024" />

    
    <glyph glyph-name="iframe" unicode="&#58911;" d="M954.29395889 799.33924481h-888.15681739a53.02428761 53.02428761 0 0 1-53.02428759-53.02428762v-742.34002645a53.02428761 53.02428761 0 0 1 53.02428759-53.0242876h888.15681739a53.02428761 53.02428761 0 0 1 53.02428761 53.0242876v742.34002645a53.02428761 53.02428761 0 0 1-53.02428761 53.02428762z m-117.07762703-66.38640808a41.88918721 41.88918721 0 1 0 0-83.75186228 41.88918721 41.88918721 0 0 0 0 83.75186228z m-118.19113708 0a41.88918721 41.88918721 0 1 0 0-83.75186228 41.88918721 41.88918721 0 0 0 0 83.75186228z m-118.2176492 0a41.88918721 41.88918721 0 1 0 0-83.75186228 41.88918721 41.88918721 0 0 0 0 83.75186228z m300.46212569-675.95361838h-782.10824216V596.0971504199999h782.10824216v-539.09793207z"  horiz-adv-x="1024" />

    
    <glyph glyph-name="cube2" unicode="&#58910;" d="M86.144 171.050667a42.666667 42.666667 0 0 1 24.832-38.741334l383.189333-176.298666c0.64-0.298667 1.365333-0.170667 2.005334-0.469334 5.12-2.048 10.410667-3.456 15.829333-3.456s10.666667 1.365333 15.701333 3.413334c0.682667 0.256 1.408 0.170667 2.090667 0.469333l383.189333 175.914667c15.146667 6.954667 24.874667 22.144 24.874667 38.784V597.376l-0.042667 0.256a41.258667 41.258667 0 0 1-1.664 11.221333c-0.341333 1.194667-0.896 2.261333-1.322666 3.413334a44.672 44.672 0 0 1-3.2 6.954666 44.16 44.16 0 0 1-2.56 3.541334 41.813333 41.813333 0 0 1-8.149334 8.234666c-0.896 0.725333-1.578667 1.536-2.56 2.176-1.109333 0.768-2.432 1.109333-3.584 1.749334-0.810667 0.384-1.365333 0.981333-2.218666 1.365333l-383.189334 170.666667a42.794667 42.794667 0 0 1-34.730666 0l-383.189334-170.666667c-0.853333-0.384-1.493333-0.981333-2.261333-1.408-1.194667-0.64-2.432-1.024-3.541333-1.706667-0.938667-0.64-1.664-1.450667-2.56-2.176a33.237333 33.237333 0 0 1-8.149334-8.234666 44.16 44.16 0 0 1-2.56-3.541334c-1.28-2.218667-2.304-4.565333-3.2-6.954666-0.426667-1.194667-1.024-2.218667-1.322666-3.413334a39.68 39.68 0 0 1-1.664-11.221333l-0.042667-0.256v-426.325333z m85.333333 360.362666L469.333333 397.696v-336.384l-297.856 137.045333V531.413333z m681.045334-333.354666L554.666667 61.312v336.426667l297.856 133.717333v-333.397333zM512 721.28l278.656-124.117333-153.770667-69.034667L512 472.064 387.114667 528.128 233.344 597.162667 512 721.28z"  horiz-adv-x="1024" />

    
    <glyph glyph-name="cube1" unicode="&#58908;" d="M934.602 559.832c-3.61 0-7.032-0.658-10.14-1.924l-4.562-2.3-342.95-177.876-7.776-3.992s-0.104-0.046-0.104-0.094c-15.12-9.336-25.07-25.012-25.07-42.85v-371.708c0-12.764 11.298-23.088 25.38-23.088a27.54 27.54 0 0 1 12.13 2.808c0.31 0.19 0.726 0.376 1.038 0.564l349.462 185.388 0.518 0.282c16.482 9.008 27.47 25.484 27.47 44.21V536.836c0.002 12.718-11.4 22.996-25.396 22.996zM908.546 658.958l-363.4 163.462S523.828 832 511.992 832s-33.052-9.58-33.052-9.58L115.228 658.958s-15.978-6.584-15.978-18.958c0-13.124 16.6-23 16.6-23l365.164-192.742 5.804-2.958c7.568-3.374 16.154-5.298 25.174-5.298 9.122 0 17.83 1.926 25.484 5.392l5.078 2.63 365.786 193.072s15.016 8.072 15.016 22.906c0 12.998-14.81 18.956-14.81 18.956zM454.932 373.644l-7.984 4.086-342.864 177.876-4.56 2.3c-2.99 1.268-6.516 1.924-10.142 1.924-13.994 0-25.38-10.276-25.38-22.994v-367.584c0-18.776 10.97-35.204 27.454-44.21l0.416-0.282 349.478-185.388c3.836-2.16 8.398-3.374 13.272-3.374 13.978 0 25.38 10.324 25.38 23.088V330.794c-0.002 17.838-9.954 33.514-25.07 42.85z"  horiz-adv-x="1024" />

    
    <glyph glyph-name="iconxiazuan1" unicode="&#58907;" d="M1335.46666657-128l0 1024-1024 0L311.46666657-128 1335.46666657-128zM394.02666657 813.056L394.02666657 813.056 1252.77866657 813.05599999 1252.77866657-44.799999999999955l-858.752 0L394.02666657 813.056zM663.46666657 540.54399999L791.46666657 540.544 791.46666657 28.543999999999983 855.46666657 28.543999999999983 855.46666657 540.544 983.46666657 540.54399999 823.46666657 732.544Z"  horiz-adv-x="1639" />

    
    <glyph glyph-name="iconxiazuan" unicode="&#58904;" d="M307.2 896l0-1024 1024 0L1331.2 896 307.2 896zM1248.64-45.056 1248.64-45.056 389.888-45.056 389.888 812.8l858.752 0L1248.64-45.056zM979.2 227.456 851.2 227.456 851.2 739.456 787.2 739.456 787.2 227.456 659.2 227.456 819.2 35.456Z"  horiz-adv-x="1639" />

    
    <glyph glyph-name="heart" unicode="&#59050;" d="M489.993 8.893 177.906 309.979c-4.002 3.501-114.033 104.031-114.033 224.063 0 146.54 89.526 234.065 239.069 234.065 87.523 0 169.546-69.019 209.058-108.03 39.512 39.011 121.535 108.03 209.059 108.03 149.542 0 239.068-87.525 239.068-234.065 0-120.033-110.031-220.563-114.533-225.065L534.007 8.893c-6-6-14.003-9-22.007-9C503.997-0.107 495.993 2.893 489.993 8.893z"  horiz-adv-x="1024" />

    
    <glyph glyph-name="heart1" unicode="&#59296;" d="M862.08 691.5840000000001a253.354667 253.354667 0 0 1-179.584 74.837333A251.989333 251.989333 0 0 1 512 699.9466669999999a251.904 251.904 0 0 1-170.496 66.474666 253.525333 253.525333 0 0 1-179.754667-75.008c-100.394667-100.821333-100.352-258.517333 0.085334-358.912l312.832-312.832c7.253333-12.757333 21.248-20.992 37.333333-20.992a42.24 42.24 0 0 1 33.792 17.450667l316.373333 316.373333c100.437333 100.394667 100.48 258.090667-0.085333 359.082667z m-60.245333-298.752L512 102.99733300000003l-289.834667 289.834667c-66.645333 66.688-66.602667 171.392-0.085333 238.250667 32.426667 32.256 74.837333 50.005333 119.424 50.005333s86.826667-17.749333 118.997333-49.92l21.333334-21.333333a42.624 42.624 0 0 1 60.330666 0l21.333334 21.333333c64.512 64.384 173.824 64.213333 238.250666 0.085333 66.688-67.029333 66.730667-171.733333 0.085334-238.421333z"  horiz-adv-x="1024" />

    
    <glyph glyph-name="star1" unicode="&#59201;" d="M0 512 1024 512 192-128 512 896 832-128Z"  horiz-adv-x="1024" />

    
    <glyph glyph-name="star" unicode="&#58903;" d="M844.8-128c-7.168 0-15.36 2.048-21.504 7.168l-286.72 207.872-286.72-207.872c-13.312-9.216-30.72-9.216-44.032 0s-18.432 26.624-13.312 41.984L302.08 258.048 15.36 465.92c-13.312 9.216-18.432 26.624-13.312 41.984s19.456 25.6 35.84 25.6h353.28L500.736 870.4c5.12 15.36 19.456 25.6 35.84 25.6s30.72-10.24 35.84-25.6l108.544-336.896h354.304c16.384 0 30.72-10.24 35.84-25.6s0-32.768-13.312-41.984l-286.72-207.872 109.568-336.896c5.12-15.36-1.024-32.768-13.312-41.984-7.168-5.12-14.336-7.168-22.528-7.168z m-308.224 299.008c7.168 0 15.36-3.072 21.504-7.168l216.064-156.672-82.944 252.928c-4.096 15.36 1.024 32.768 14.336 41.984l215.04 156.672h-266.24c-16.384 0-30.72 10.24-35.84 25.6l-81.92 253.952-81.92-253.952c-5.12-15.36-19.456-25.6-35.84-25.6h-266.24l215.04-156.672c13.312-9.216 18.432-26.624 13.312-41.984l-81.92-252.928 215.04 156.672c7.168 4.096 14.336 7.168 22.528 7.168z"  horiz-adv-x="1088" />

    
    <glyph glyph-name="xiugaimima" unicode="&#59012;" d="M836.838-127.997 199.684-127.997c-64 0-115.847 57.3-115.847 128L83.837 320.001c0 70.695 51.847 128 115.847 128l0 96C199.684 738.408 342.289 896 518.259 896c175.94 0 318.579-157.592 318.579-351.999l0-2.003-0.37 0c-1-16.68-13.24-30-28.605-30-15.33 0-27.605 13.32-28.575 30l-0.36 0 0 2.003c0 159.06-116.7 287.997-260.669 287.997S257.624 703.06 257.624 544.001l0-96 579.214 0c63.97 0 115.85-57.305 115.85-128l0-319.999C952.683-70.698 900.803-127.997 836.838-127.997L836.838-127.997zM894.743 320.001c0 35.35-25.905 64-57.905 64L199.684 384.001c-32 0-57.94-28.65-57.94-64l0-319.999c0-35.35 25.94-64 57.94-64l637.153 0c31.97 0 57.905 28.65 57.905 64L894.742 320.001 894.743 320.001zM547.199 134.472l0-102.47c0-17.67-12.94-32-28.94-32-16 0-28.97 14.335-28.97 32l0 102.47c-33.575 13.26-57.91 47.86-57.91 89.515 0 53.03 38.88 96.015 86.88 96.015 47.97 0 86.88-42.985 86.88-96.015C605.138 182.332 580.773 147.732 547.199 134.472L547.199 134.472zM518.259 256.002c-16 0-28.97-14.33-28.97-32.015 0-17.65 12.97-31.985 28.97-31.985 16 0 28.94 14.335 28.94 31.985C547.199 241.672 534.259 256.002 518.259 256.002L518.259 256.002z"  horiz-adv-x="1024" />

    
    <glyph glyph-name="organization" unicode="&#58987;" d="M905.975 159v168.75c0 31.331-25.144 56.25-56.25 56.25-0.113 0-0.113 0-0.225 0s-0.113 0-0.225 0h-280.8v112.5h112.5v337.5h-337.5v-337.5h112.5v-112.5h-280.913c-0.056 0-0.112 0-0.169 0s-0.169 0-0.225 0c-31.275 0-56.25-25.144-56.25-56.25v-168.75h-56.25v-225h225v225h-56.25v112.5h225v-112.5h-56.25v-225h225v225h-56.25v112.5h225v-112.5h-56.25v-225h225v225h-56.194z"  horiz-adv-x="1025" />

    
    <glyph glyph-name="forward" unicode="&#59120;" d="M66.953846 324.923077h653.784616c17.723077 0 25.6-21.661538 13.784615-33.476923l-189.046154-189.046154c-11.815385-11.815385-11.815385-29.538462 0-41.353846l43.323077-43.323077c11.815385-11.815385 29.538462-11.815385 41.353846 0L974.769231 364.307692c11.815385 11.815385 11.815385 29.538462 0 41.353846L630.153846 750.276923c-11.815385 11.815385-29.538462 11.815385-41.353846 0l-41.353846-41.353846c-11.815385-11.815385-11.815385-29.538462 0-41.353846l189.046154-189.046154c11.815385-13.784615 3.938462-35.446154-13.784616-35.446154H68.923077c-15.753846 0-29.538462-11.815385-29.538462-27.569231v-59.076923c0-15.753846 11.815385-31.507692 27.569231-31.507692z"  horiz-adv-x="1024" />

    
    <glyph glyph-name="user_circle" unicode="&#59054;" d="M512 896C229.232 896 0 666.768 0 384s229.232-512 512-512 512 229.232 512 512S794.768 896 512 896z m308.048-790.88c-60.272 29.216-38.112 6.368-116.96 38.832-80.656 33.168-99.76 43.984-99.76 43.984l-0.704 76.064s30.208 22.752 39.632 94.672c18.848-5.408 25.248 21.952 26.272 39.424 1.104 16.88 11.136 69.536-11.92 64.832 4.72 35.152 8.432 66.928 6.736 83.76-5.76 59.056-46.896 120.704-150.72 125.216-88.272-4.512-145.568-66.208-151.36-125.264-1.664-16.832 1.728-48.576 6.448-83.776-23.056 4.752-13.136-47.984-12.128-64.864 1.12-17.472 7.36-44.944 26.256-39.504 9.392-71.92 39.6-94.88 39.6-94.88l-0.752-76.416s-19.12-11.584-99.776-44.736c-78.832-32.432-56.704-8.192-116.96-37.344C137.088 178.944 96 276.56 96 384 96 613.744 282.256 800 512 800s416-186.256 416-416c0-107.456-41.088-205.056-107.952-278.88z"  horiz-adv-x="1024" />

    
    <glyph glyph-name="xiugaimima1" unicode="&#58902;" d="M12.8 96.256v-214.528h208.896l542.72 600.576L555.52 696.32 12.8 96.256zM931.328 653.824c20.48 20.992 20.48 64.512 0 86.016L806.4 868.352c-20.992 20.992-62.976 20.992-83.456 0l-125.44-128.512 208.896-214.528 124.928 128.512z m-500.736-686.08l-83.456-86.016h668.16v86.016H430.592z"  horiz-adv-x="1024" />

    
    <glyph glyph-name="dashboard2" unicode="&#59073;" d="M398.575 330.33H123.21c-33 0-60-27-60-60v-273.735c0-33 27-60 60-60h275.364c33 0 60 27 60 60V270.33c0.001 33-26.999 60-59.999 60z m0-333.628a0.901 0.901 0 0 0-0.107-0.107h-275.15a0.901 0.901 0 0 0-0.107 0.107v273.52a0.901 0.901 0 0 0 0.107 0.107h275.149v0.001c0.037-0.031 0.076-0.07 0.108-0.108v-273.52zM899.21 832.199H623.772c-33 0-60-27-60-60v-273.735c0-33 27-60 60-60H899.21c33 0 60 27 60 60V772.199c0 33-27 60-60 60z m0.001-333.628a0.901 0.901 0 0 0-0.107-0.107H623.88a0.901 0.901 0 0 0-0.107 0.107v273.52a0.901 0.901 0 0 0 0.107 0.107h275.223v0.001c0.037-0.031 0.076-0.07 0.108-0.108v-273.52zM398.649 832.199H123.21c-33 0-60-27-60-60v-273.735c0-33 27-60 60-60h275.438c33 0 60 27 60 60V772.199c0.001 33-26.999 60-59.999 60z m0-333.628a0.901 0.901 0 0 0-0.107-0.107H123.318a0.901 0.901 0 0 0-0.107 0.107v273.52a0.901 0.901 0 0 0 0.107 0.107h275.223v0.001c0.037-0.031 0.076-0.07 0.108-0.108v-273.52zM899.21 330.024h-274c-33 0-60-26.988-60-59.973v-273.879c0-32.985 27-59.973 60-59.973h180c16.5 0 30 13.494 30 29.987s-13.5 29.987-30 29.987h-180V270.051h274V87.132c0-16.493 13.5-29.987 30-29.987s30 13.494 30 29.987V270.051c0 32.985-27 59.973-60 59.973z"  horiz-adv-x="1024" />

    
    <glyph glyph-name="dashboard1" unicode="&#59127;" d="M152 343.99999969l319.99999969 0 0 400.00000031-319.99999969 0 0-400.00000031zM152 24l319.99999969 0 0 240-319.99999969 0 0-240zM552.00000031 24l319.99999969 0 0 400.00000031-319.99999969 0 0-400.00000031zM552.00000031 744l0-240 319.99999969 0 0 240-319.99999969 0z"  horiz-adv-x="1024" />

    
    <glyph glyph-name="hbar" unicode="&#58901;" d="M95.232 763.2896c-5.7344-2.048-13.312-5.7344-16.9984-8.192-13.7216-9.8304-12.9024 17.2032-12.288-345.9072l0.6144-329.3184 5.5296-15.1552c10.4448-28.4672 26.2144-45.8752 50.7904-55.9104l11.264-4.7104 398.5408-0.6144 398.5408-0.4096 9.216 6.9632c10.24 7.9872 20.0704 24.7808 20.0704 34.4064 0 9.0112-5.3248 17.408-12.6976 20.0704-5.12 1.8432-97.6896 2.2528-379.904 2.048-347.136-0.2048-373.5552 0-379.904 3.2768-3.6864 1.8432-13.5168 8.192-21.9136 13.9264-8.192 5.7344-16.7936 11.264-18.8416 12.4928-2.048 1.024-4.096 3.2768-4.7104 5.12-0.6144 1.6384-3.4816 7.168-6.3488 12.288l-5.12 9.216V434.3808c0.2048 286.72 0 312.1152-3.2768 320.1024-5.3248 13.312-13.312 15.5648-32.5632 8.8064zM251.904 740.352c-20.2752-3.6864-30.5152-11.264-37.2736-28.2624-4.3008-11.264-4.5056-14.1312-4.7104-70.0416 0-63.8976 0.6144-67.584 10.8544-67.584 3.072 0 8.8064 1.2288 12.6976 2.4576 5.5296 2.048 77.0048 2.8672 304.128 3.6864 225.28 0.8192 298.3936 1.6384 302.4896 3.4816 9.0112 4.096 10.24 12.4928 9.4208 67.1744l-0.6144 49.152-6.144 12.288c-3.2768 6.5536-9.4208 14.7456-13.312 17.8176-15.7696 12.288-5.7344 11.8784-300.032 11.6736-147.456-0.2048-272.384-1.024-277.504-1.8432zM240.2304 512.2048c-13.312-4.3008-21.0944-11.0592-26.8288-23.552-5.12-11.0592-5.3248-12.9024-5.3248-50.3808 0-44.2368 1.6384-53.8624 12.288-66.3552 14.336-16.5888-1.6384-15.5648 247.6032-15.5648 241.4592 0 233.0624-0.4096 247.808 11.8784 13.9264 11.264 15.36 17.408 15.36 63.8976 0 22.528-1.024 45.056-2.2528 49.9712-2.4576 11.4688-10.6496 21.9136-21.0944 27.4432l-8.3968 4.5056-225.28 0.4096c-180.8384 0.2048-226.9184-0.2048-233.8816-2.2528zM246.1696 283.4432c-17.6128-3.4816-29.0816-13.7216-34.2016-31.1296-4.5056-14.9504-6.144-56.32-3.2768-78.2336 3.072-22.9376 9.4208-35.4304 21.2992-42.1888l8.6016-4.9152 164.2496-0.6144c162.2016-0.4096 164.4544-0.4096 172.6464 3.6864 10.24 5.3248 19.456 17.8176 24.1664 32.5632 2.6624 8.8064 3.4816 18.8416 3.4816 44.2368 0 29.4912-0.6144 33.9968-4.9152 44.8512-5.5296 13.9264-16.7936 27.2384-26.2144 31.3344-5.3248 2.048-35.84 2.6624-161.792 2.4576-85.4016-0.2048-159.1296-1.024-164.0448-2.048z"  horiz-adv-x="1024" />

    
    <glyph glyph-name="vertical-center" unicode="&#58885;" d="M227.556 384l0-56.889-170.667 0L56.889 384z m341.33299999 0l1e-8-56.889-170.66699999 0L398.222 384z m398.22200001 0l0-56.889-170.667 0L796.444 384zM455.111 782.222L455.111-71.11000000000001l-284.444 0L170.667 782.222 455.11 782.222z m-227.555-56.889l0-739.555L398.222-14.22199999999998 398.222 725.333l-170.666 0z m625.777-113.777l0-512L568.89 99.55600000000004l0 512L853.333 611.556z m-56.889-56.89l-170.666 0 0-398.222L796.444 156.44399999999996 796.444 554.6669999999999z"  horiz-adv-x="1024" />

    
    <glyph glyph-name="align-top" unicode="&#58887;" d="M56.889 839.111H967.11v-56.889H56.89z m0-113.778V-71.11000000000001h227.555V725.333H56.89z m56.889-56.889h113.778v-682.666H113.778V668.444z m284.444 56.89v-568.89h227.556v568.89H398.222z m56.89-56.89h113.777v-455.11H455.11v455.11z m284.444 56.89v-796.445H967.11V725.333H739.556z m56.888-56.89h113.778v-682.666H796.444V668.444z"  horiz-adv-x="1024" />

    
    <glyph glyph-name="horizontal-center" unicode="&#58888;" d="M455.111-71.11099999999999l0 170.667L512 99.55600000000004 512-71.11099999999999z m0 341.33300001L455.111 440.89 512 440.89 512 270.222z m0 398.22199999l0 170.667L512 839.111 512 668.444zM56.889 327.111l853.333 0L910.222 42.66700000000003 56.89 42.66700000000003 56.89 327.11z m56.889-227.555l739.555 0 0 170.666L113.778 270.222 113.778 99.55600000000004z m113.778 625.777l512 0L739.556 440.89l-512 0 0 284.444z m56.888-56.889L284.444 497.778l398.22299999 0 1e-8 170.666L284.444 668.444z"  horiz-adv-x="1024" />

    
    <glyph glyph-name="align-bottom" unicode="&#58891;" d="M56.889-14.22199999999998H967.11v-56.89H56.89z m227.555 56.889V839.11H56.89v-796.444h227.555zM113.778 782.222h113.778v-682.666H113.778V782.222z m512-739.555V611.556H398.222v-568.89h227.556z m-170.667 512H568.89v-455.111H455.11v455.11z m512-512V839.11H739.556v-796.444H967.11zM796.444 782.222h113.778v-682.666H796.444V782.222z"  horiz-adv-x="1024" />

    
    <glyph glyph-name="align-right" unicode="&#58898;" d="M910.222 839.111h56.89V-71.11000000000001h-56.89z m-56.889 0H56.89v-227.555h796.444V839.11z m-56.889-56.889v-113.778H113.778V782.222h682.666z m56.89-284.444h-568.89v-227.556h568.89V497.778z m-56.89-56.89v-113.777h-455.11V440.89h455.11z m56.89-284.444H56.888V-71.11000000000001h796.444V156.44399999999996z m-56.89-56.888v-113.778H113.778V99.55600000000004h682.666z"  horiz-adv-x="1024" />

    
    <glyph glyph-name="align-left" unicode="&#58900;" d="M56.889 839.111h56.889V-71.11000000000001h-56.89z m113.778 0H967.11v-227.555H170.667V839.11z m56.889-56.889v-113.778h682.666V782.222H227.556z m-56.89-284.444h568.89v-227.556h-568.89V497.778z m56.89-56.89v-113.777h455.11V440.89h-455.11z m-56.89-284.444h796.445V-71.11000000000001H170.667V156.44399999999996z m56.89-56.888v-113.778h682.666V99.55600000000004H227.556z"  horiz-adv-x="1024" />

    
    <glyph glyph-name="sortascending" unicode="&#60087;" d="M426.666667 426.666667 426.666667 341.333333 768 341.333333 768 426.666667 426.666667 426.666667M426.666667 682.666667 426.666667 597.333333 597.333333 597.333333 597.333333 682.666667 426.666667 682.666667M426.666667 170.666667 426.666667 85.333333 938.666667 85.333333 938.666667 170.666667 426.666667 170.666667M256 597.333333 362.666667 597.333333 213.333333 746.666667 64 597.333333 170.666667 597.333333 170.666667 42.666667 256 42.666667 256 597.333333Z"  horiz-adv-x="1024" />

    
    <glyph glyph-name="sortdescending" unicode="&#60088;" d="M426.666667 341.333333 426.666667 426.666667 768 426.666667 768 341.333333 426.666667 341.333333M426.666667 85.333333 426.666667 170.666667 597.333333 170.666667 597.333333 85.333333 426.666667 85.333333M426.666667 597.333333 426.666667 682.666667 938.666667 682.666667 938.666667 597.333333 426.666667 597.333333M256 170.666667 362.666667 170.666667 213.333333 21.333333 64 170.666667 170.666667 170.666667 170.666667 725.333333 256 725.333333 256 170.666667Z"  horiz-adv-x="1024" />

    
    <glyph glyph-name="values" unicode="&#58894;" d="M390.826667 789.504c-0.682667-2.389333-4.437333-15.36-8.192-28.330667-21.162667-72.704-76.8-107.861333-180.565334-113.322666-41.642667-2.389333-39.253333 1.706667-37.546666-61.098667l1.024-44.032 98.986666-1.706667 98.986667-1.706666 1.024-275.456 0.682667-275.797334 7.850666-1.706666c4.096-1.024 32.085333-1.365333 62.122667-1.024l54.613333 1.024v805.546666l-48.810666 1.024c-37.205333 0.682667-48.810667 0-50.176-3.413333zM1556.48 789.845333c-40.618667-3.413333-65.877333-10.922667-100.693333-30.72-71.338667-39.936-114.005333-116.736-120.149334-215.381333l-2.048-33.450667h62.122667c56.661333 0 61.781333 0.341333 61.781333 6.144 0 3.072 1.365333 18.090667 3.072 33.109334 10.24 87.722667 57.344 131.072 138.581334 127.317333 49.493333-2.048 84.992-23.210667 101.717333-60.416 10.581333-22.869333 10.24-67.242667-0.682667-91.477333-19.797333-44.373333-67.584-66.901333-138.581333-65.536l-37.546667 1.024v-56.32c0-53.930667 0.341333-55.978667 6.826667-54.954667 32.426667 4.096 86.357333 4.437333 103.424 0.682667 67.925333-15.701333 106.837333-62.122667 106.837333-128 0-60.757333-31.744-103.765333-92.501333-124.928-28.672-9.898667-83.626667-10.922667-113.322667-2.048-50.176 15.36-82.602667 61.44-92.16 132.096l-4.096 30.72-59.733333-0.682667-60.074667-1.024 0.682667-38.229333c0.682667-45.056 8.533333-78.165333 26.624-111.957334 35.157333-66.56 85.333333-104.106667 163.84-123.221333 36.864-8.874667 124.928-8.874667 160.426667-0.341333 76.8 19.114667 132.778667 55.978667 166.570666 110.933333 50.517333 81.92 47.445333 195.584-7.850666 271.018667-9.898667 13.994667-33.109333 32.768-55.637334 45.738666l-14.336 7.850667 17.408 16.384c46.762667 44.373333 62.805333 80.213333 62.805334 140.629333 0 141.994667-115.370667 229.717333-283.306667 215.04zM916.48 785.408c-28.672-7.168-80.213333-34.474667-105.130667-55.296-36.864-31.402667-68.608-84.992-78.165333-132.778667-2.048-9.216-4.096-38.229333-5.12-64.170666l-1.706667-46.762667 61.098667 0.682667 60.757333 1.024 2.389334 32.768c5.12 73.386667 32.085333 121.514667 80.554666 145.408 15.701333 7.850667 25.258667 9.898667 49.152 10.581333 25.941333 1.024 33.109333 0 53.589334-7.850667 37.888-14.336 64.170667-39.253333 76.8-71.68 12.288-31.744 8.192-79.530667-9.557334-116.053333-21.845333-44.373333-50.858667-70.314667-148.821333-132.778667-85.674667-54.272-114.346667-75.093333-142.336-103.424-63.146667-63.488-95.573333-134.485333-105.472-231.082666-1.706667-18.090667-1.024-23.893333 2.389333-26.282667 6.485333-4.096 526.336-4.096 530.432 0 2.048 2.048 3.072 26.624 2.389334 58.026667l-1.024 54.954666h-192.512c-105.813333 0-193.194667 1.365333-194.218667 2.730667-3.072 4.778667 17.749333 36.522667 37.546667 56.661333 24.576 24.917333 58.368 49.834667 109.568 80.896 158.72 95.573333 212.650667 149.845333 239.957333 241.664 10.581333 35.84 10.581333 100.352 0.341333 138.24-13.653333 49.152-41.642667 89.770667-83.968 121.173334-21.162667 15.701333-41.642667 25.258667-81.237333 38.229333-28.672 9.216-33.109333 9.898667-85.333333 9.557333-30.72-0.341333-62.805333-2.389333-72.362667-4.437333z"  horiz-adv-x="2041" />

    
    <glyph glyph-name="categories" unicode="&#58896;" d="M1634.986667 732.16c-28.672-4.096-61.098667-12.288-81.92-20.48-73.386667-28.672-135.168-95.573333-161.450667-174.421333-13.312-39.594667-16.384-56.32-19.456-105.472-6.144-87.722667 2.730667-160.426667 25.6-209.92 4.778667-10.581333 8.533333-19.797333 8.533333-20.821334 0-6.826667 32.768-51.882667 52.565334-72.362666 41.301333-42.666667 82.944-65.536 143.701333-78.506667 70.314667-15.018667 100.693333-14.677333 174.08 1.365333 29.354667 6.485333 31.061333 7.168 64.170667 23.552 65.877333 32.085333 112.64 89.429333 132.096 162.816 3.754667 14.677333 6.826667 30.72 6.826666 35.84v9.557334l-65.536-0.682667c-35.84-0.341333-66.218667-2.048-67.584-3.413333-1.365333-1.365333-4.437333-9.557333-6.826666-18.090667-13.312-44.032-55.978667-85.333333-100.693334-97.962667-35.157333-9.898667-50.858667-11.264-75.093333-6.485333-40.618667 7.850667-61.098667 17.749333-87.04 41.642667-29.013333 27.306667-47.786667 63.146667-61.098667 118.442666-5.12 22.528-4.778667 122.197333 1.024 145.749334 15.018667 61.781333 41.984 105.472 82.261334 133.12 43.690667 30.037333 124.245333 32.085333 168.618666 4.096 35.84-22.528 63.829333-58.709333 72.704-94.549334l5.12-20.48 67.242667-1.024 66.901333-0.682666v11.946666c0 17.066667-12.288 61.098667-23.893333 86.016-23.893333 51.882667-65.536 93.525333-121.514667 121.514667-21.504 10.922667-33.450667 15.018667-75.776 26.282667-18.432 4.778667-98.986667 7.168-123.562666 3.413333zM309.248 717.482667c-3.072-4.096-8.192-16.725333-11.946667-27.989334C293.546667 678.229333 282.624 646.826667 273.066667 619.52s-22.528-64.853333-28.672-83.626667c-6.485333-18.773333-21.162667-61.098667-32.768-93.866666-11.605333-32.768-24.576-70.314667-29.013334-83.626667-4.437333-12.970667-18.773333-54.613333-31.744-92.16-49.834667-142.677333-67.925333-194.901333-70.314666-204.117333L78.506667 52.90666699999997l70.314666 0.682666 70.656 1.024L225.28 73.38666699999999c3.413333 10.24 13.994667 44.032 23.552 75.093333 9.557333 31.061333 18.773333 58.709333 20.48 61.44 2.389333 4.437333 19.797333 5.12 118.784 6.144 90.453333 0.682667 116.736-0.341333 119.466667-3.413333 3.413333-4.778667 11.264-28.330667 30.037333-89.770667 6.826667-22.528 14.677333-47.445333 17.408-55.296l5.461333-14.677333h71.338667c62.805333 0 71.338667 0.682667 71.338667 5.461333 0 5.12-13.994667 49.152-20.821334 64.512-1.365333 3.754667-7.509333 20.821333-12.970666 37.546667-5.461333 17.066667-19.456 57.685333-31.061334 90.453333-11.605333 32.768-23.893333 68.266667-27.306666 78.506667-3.754667 10.24-13.653333 38.912-22.186667 63.146666-8.533333 24.576-20.138667 57.344-25.6 73.386667-5.12 16.042667-20.821333 60.416-34.133333 98.986667-13.653333 38.570667-27.648 79.189333-31.402667 90.453333-3.754667 11.264-7.850667 23.552-9.557333 27.306667-1.706667 3.754667-4.778667 12.970667-7.168 20.48-7.509333 23.210667-3.413333 22.186667-88.746667 22.186666-77.482667 0-78.165333 0-82.944-7.850666z m90.794667-147.797334c20.48-66.901333 24.917333-80.554667 31.744-102.058666 4.437333-12.970667 15.018667-46.762667 23.893333-75.093334 8.533333-27.989333 17.066667-55.296 18.773333-60.416 1.706667-4.778667 2.048-9.898667 1.024-10.922666-1.365333-1.024-40.277333-2.048-87.04-2.048-97.621333 0-90.453333-3.754667-76.458666 38.229333 12.629333 38.570667 39.936 126.293333 60.074666 192.170667 15.018667 50.176 18.090667 52.224 27.989334 20.138666zM780.629333 723.285333c-1.365333-1.365333-2.389333-152.917333-2.389333-336.554666v-334.165334l181.930667 1.365334c151.552 1.024 184.32 2.048 198.656 6.485333 64.512 20.138667 105.130667 50.176 127.658666 93.866667 15.36 30.378667 18.773333 45.738667 18.773334 86.357333 0.341333 40.618667-3.413333 55.978667-19.797334 85.333333-20.138667 36.522667-70.656 70.656-111.274666 75.776-5.461333 0.682667-8.533333 3.072-8.533334 7.168 0 4.437333 5.12 7.850667 17.749334 12.288 32.085333 10.922667 59.050667 36.181333 76.8 72.021334 10.24 20.138667 11.264 25.6 12.288 58.709333 2.389333 66.218667-18.773333 107.861333-70.314667 138.581333-25.941333 15.701333-45.056 22.869333-76.117333 28.330667-24.576 4.437333-341.333333 8.533333-345.429334 4.437333z m309.248-113.322666c33.109333-15.701333 46.762667-37.888 46.762667-74.752 0-38.570667-16.042667-63.829333-50.517333-78.506667-27.648-12.288-50.517333-15.018667-109.909334-13.994667l-56.32 1.024-1.024 83.626667c-0.341333 45.738667 0 85.674667 1.024 88.064 1.365333 3.413333 17.066667 4.096 77.482667 3.413333 70.997333-1.024 77.141333-1.706667 92.501333-8.874666z m-2.730666-262.485334c59.392-14.677333 90.794667-63.829333 76.117333-118.784-9.216-34.816-47.445333-66.218667-87.381333-71.338666-25.6-3.413333-133.12-6.485333-146.090667-4.096l-11.605333 2.389333v96.597333c0 52.906667 1.024 97.621333 2.389333 98.986667 3.413333 3.413333 150.869333 0.341333 166.570667-3.754667z"  horiz-adv-x="2041" />

    
    <glyph glyph-name="preview" unicode="&#59321;" d="M512.14806282 675.09392118c-300.02866252 0-500.04817541-300.02866252-500.04817541-300.02866251s200.01951289-300.02866252 500.04817541-300.02866252c300.02866252 0 500.04817541 300.02866252 500.0481754 300.02866252S812.02987615 675.09392118 512.14806282 675.09392118z m0-497.83936948c-109.87838578 0-198.98914133 89.10954192-198.98914134 198.98914133s89.10954192 198.98914133 198.98914134 198.98914134c109.87838578 0 198.98914133-89.10954192 198.98914133-198.98914134-0.14806282-110.02523497-89.10954192-198.98914133-198.98914133-198.98914133z m-100.01036327 198.39931733c0-26.0711917 10.75275852-51.99310697 29.16352-70.40508206s44.33389037-29.16352 70.40508208-29.16352 51.99310697 10.75275852 70.40508207 29.16352c18.41076148 18.41076148 29.16352 44.33389037 29.16352 70.40508206s-10.75275852 51.99310697-29.16352 70.40508208c-18.41076148 18.41076148-44.33389037 29.16352-70.40508207 29.16352s-51.99310697-10.75275852-70.40508208-29.16352c-18.41076148-18.5588243-29.16352-44.33389037-29.16352-70.40508208z"  horiz-adv-x="1024" />

    
    <glyph glyph-name="more-vertical-o" unicode="&#59827;" d="M471.99999969 703.99999969h80.00000062v-79.99999969h-80.00000062V703.99999969z m0-279.99999938h80.00000062v-80.00000062h-80.00000062v80.00000062z m0-280.00000031h80.00000062v-79.99999969h-80.00000062v79.99999969z"  horiz-adv-x="1024" />

    
    <glyph glyph-name="rect-text" unicode="&#59418;" d="M1021.64598332 653.8125794L1021.64598332 856.17201396l-202.35943457 0 0-67.45314485L212.2082451 788.71886911 212.2082451 856.17201396 9.84881054 856.17201396l0-202.35943456 67.45314486 0 0-539.6251588L9.84881054 114.1874206l0-202.35943456 202.35943456 0 0 67.45314485 607.07830365 0 0-67.45314485 202.35943457 0 0 202.35943456-67.45314485 0L954.19283847 653.8125794 1021.64598332 653.8125794zM886.73969361 788.71886911l67.45314486 0 0-67.45314485-67.45314486 0L886.73969361 788.71886911zM77.3019554 788.71886911l67.45314485 0 0-67.45314485L77.3019554 721.2657242600001 77.3019554 788.71886911zM77.3019554-20.718869110000014l0 67.45314485 67.45314485 0 0-67.45314485L77.3019554-20.718869110000014zM954.19283847-20.718869110000014l-67.45314486 0 0 67.45314485 67.45314486 0L954.19283847-20.718869110000014zM886.73969361 114.1874206l-67.45314486 0 0-67.45314486L212.2082451 46.734275740000044l0 67.45314486L144.75510025 114.1874206 144.75510025 653.8125794l67.45314485 0L212.2082451 721.2657242600001l607.07830365 0 0-67.45314486 67.45314486 0L886.73969361 114.1874206zM751.83340391 552.6328621299999C751.83340391 534.01579414 736.72389947 518.90628971 718.10683148 518.90628971L549.47396935 518.90628971l0-303.53915184C549.47396935 196.75006988999996 534.36446491 181.64056545000005 515.74739694 181.64056545000005S482.0208245 196.75006988999996 482.0208245 215.36713786999997L482.0208245 518.90628971 313.38796238 518.90628971C294.77089439 518.90628971 279.66138995 534.01579414 279.66138995 552.6328621299999S294.77089439 586.3594345500001 313.38796238 586.3594345500001l404.7188691 0C736.72389947 586.3594345500001 751.83340391 571.2499301099999 751.83340391 552.6328621299999z"  horiz-adv-x="1024" />

    
    <glyph glyph-name="rectangle" unicode="&#58976;" d="M722.488889 719.644444c85.333333 0 182.044444-96.711111 182.044444-182.044444v-301.511111c0-91.022222-91.022222-182.044444-182.044444-182.044445H301.511111c-85.333333 0-182.044444 96.711111-182.044444 182.044445V537.6c0 85.333333 96.711111 182.044444 182.044444 182.044444h420.977778z m0 62.577778H301.511111C176.355556 782.222222 56.888889 662.7555560000001 56.888889 537.6v-301.511111c0-119.466667 125.155556-244.622222 244.622222-244.622222h426.666667c119.466667 0 244.622222 119.466667 244.622222 244.622222V537.6C967.111111 662.7555560000001 847.644444 782.222222 722.488889 782.222222zM722.488889 719.644444c85.333333 0 182.044444-96.711111 182.044444-182.044444v-301.511111c0-91.022222-91.022222-182.044444-182.044444-182.044445H301.511111c-85.333333 0-182.044444 96.711111-182.044444 182.044445V537.6c0 85.333333 96.711111 182.044444 182.044444 182.044444h420.977778z m0 62.577778s125.155556 0 0 0z"  horiz-adv-x="1024" />

    
    <glyph glyph-name="tubiaozhizuomoban" unicode="&#58895;" d="M353.1 497.4H236.7c-25.5 0-46.2 20.7-46.2 46.2v114c0 25.5 20.7 46.2 46.2 46.2H353c25.5 0 46.2-20.7 46.2-46.2v-114c0.1-25.5-20.7-46.2-46.1-46.2zM236.7 677.8c-11.1 0-20.1-9-20.1-20.1v-114c0-11.1 9-20.1 20.1-20.1H353c11.1 0 20.1 9 20.1 20.1v114c0 11.1-9 20.1-20.1 20.1H236.7zM569.5 497.4H453.2c-25.5 0-46.2 20.7-46.2 46.2v114c0 25.5 20.7 46.2 46.2 46.2h116.3c25.5 0 46.2-20.7 46.2-46.2v-114c0-25.5-20.7-46.2-46.2-46.2zM453.2 677.8c-11.1 0-20.1-9-20.1-20.1v-114c0-11.1 9-20.1 20.1-20.1h116.3c11.1 0 20.1 9 20.1 20.1v114c0 11.1-9 20.1-20.1 20.1H453.2zM353.1 281H236.7c-25.5 0-46.2 20.7-46.2 46.2v114c0 25.5 20.7 46.2 46.2 46.2H353c25.5 0 46.2-20.7 46.2-46.2v-114c0.1-25.5-20.7-46.2-46.1-46.2zM236.7 461.3c-11.1 0-20.1-9-20.1-20.1v-114c0-11.1 9-20.1 20.1-20.1H353c11.1 0 20.1 9 20.1 20.1v114c0 11.1-9 20.1-20.1 20.1H236.7zM569.5 281H453.2c-25.5 0-46.2 20.7-46.2 46.2v114c0 25.5 20.7 46.2 46.2 46.2h116.3c25.5 0 46.2-20.7 46.2-46.2v-114c0-25.5-20.7-46.2-46.2-46.2zM453.2 461.3c-11.1 0-20.1-9-20.1-20.1v-114c0-11.1 9-20.1 20.1-20.1h116.3c11.1 0 20.1 9 20.1 20.1v114c0 11.1-9 20.1-20.1 20.1H453.2zM785.9 281H669.6c-25.5 0-46.2 20.7-46.2 46.2v114c0 25.5 20.7 46.2 46.2 46.2h116.3c25.5 0 46.2-20.7 46.2-46.2v-114c0.1-25.5-20.7-46.2-46.2-46.2zM669.6 461.3c-11.1 0-20.1-9-20.1-20.1v-114c0-11.1 9-20.1 20.1-20.1h116.3c11.1 0 20.1 9 20.1 20.1v114c0 11.1-9 20.1-20.1 20.1H669.6zM353.1 64.5H236.7c-25.5 0-46.2 20.7-46.2 46.2v114c0 25.5 20.7 46.2 46.2 46.2H353c25.5 0 46.2-20.7 46.2-46.2v-114c0.1-25.4-20.7-46.2-46.1-46.2zM236.7 244.9c-11.1 0-20.1-9-20.1-20.1v-114c0-11.1 9-20.1 20.1-20.1H353c11.1 0 20.1 9 20.1 20.1v114c0 11.1-9 20.1-20.1 20.1H236.7zM569.5 64.5H453.2c-25.5 0-46.2 20.7-46.2 46.2v114c0 25.5 20.7 46.2 46.2 46.2h116.3c25.5 0 46.2-20.7 46.2-46.2v-114c0-25.4-20.7-46.2-46.2-46.2zM453.2 244.9c-11.1 0-20.1-9-20.1-20.1v-114c0-11.1 9-20.1 20.1-20.1h116.3c11.1 0 20.1 9 20.1 20.1v114c0 11.1-9 20.1-20.1 20.1H453.2zM785.9 64.5H669.6c-25.5 0-46.2 20.7-46.2 46.2v114c0 25.5 20.7 46.2 46.2 46.2h116.3c25.5 0 46.2-20.7 46.2-46.2v-114c0.1-25.4-20.7-46.2-46.2-46.2zM669.6 244.9c-11.1 0-20.1-9-20.1-20.1v-114c0-11.1 9-20.1 20.1-20.1h116.3c11.1 0 20.1 9 20.1 20.1v114c0 11.1-9 20.1-20.1 20.1H669.6zM720.5 690.8m-13 0a13 13 0 1 1 26 0 13 13 0 1 1-26 0ZM785.9 703.9h-25v-0.3c-6.4-0.8-11.4-6.1-11.4-12.7s5-11.9 11.4-12.7v-0.3h25c11.1 0 20.1-9 20.1-20.1v-25c0-7.2 5.8-13 13-13s13 5.8 13 13v25c0.2 25.3-20.6 46.1-46.1 46.1zM832 561.5c0 0.3 0.1 0.5 0.1 0.7 0 7.2-5.8 13-13 13s-13-5.8-13-13c0-0.3 0.1-0.5 0.1-0.7h-0.1v-17.9c0-11.1-9-20.1-20.1-20.1H669.6c-11.1 0-20.1 9-20.1 20.1v114c0 11.1 9 20.1 20.1 20.1h14.2v0.3c6.4 0.8 11.4 6.1 11.4 12.7s-5 11.9-11.4 12.7v0.3h-14.2c-25.5 0-46.2-20.7-46.2-46.2v-114c0-25.5 20.7-46.2 46.2-46.2h116.3c25.5 0 46.2 20.7 46.2 46.2v17.9h-0.1zM819.1 598.1m-13 0a13 13 0 1 1 26 0 13 13 0 1 1-26 0Z"  horiz-adv-x="1024" />

    
    <glyph glyph-name="palette" unicode="&#59847;" d="M746.666667 384C711.253333 384 682.666667 412.586667 682.666667 448 682.666667 483.413333 711.253333 512 746.666667 512 782.08 512 810.666667 483.413333 810.666667 448 810.666667 412.586667 782.08 384 746.666667 384M618.666667 554.666667C583.253333 554.666667 554.666667 583.253333 554.666667 618.666667 554.666667 654.08 583.253333 682.666667 618.666667 682.666667 654.08 682.666667 682.666667 654.08 682.666667 618.666667 682.666667 583.253333 654.08 554.666667 618.666667 554.666667M405.333333 554.666667C369.92 554.666667 341.333333 583.253333 341.333333 618.666667 341.333333 654.08 369.92 682.666667 405.333333 682.666667 440.746667 682.666667 469.333333 654.08 469.333333 618.666667 469.333333 583.253333 440.746667 554.666667 405.333333 554.666667M277.333333 384C241.92 384 213.333333 412.586667 213.333333 448 213.333333 483.413333 241.92 512 277.333333 512 312.746667 512 341.333333 483.413333 341.333333 448 341.333333 412.586667 312.746667 384 277.333333 384M512 768C299.946667 768 128 596.053333 128 384 128 171.946667 299.946667 0 512 0 547.413333 0 576 28.586667 576 64 576 80.64 569.6 95.573333 559.36 106.666667 549.546667 118.186667 543.146667 133.12 543.146667 149.333333 543.146667 184.746667 571.733333 213.333333 607.146667 213.333333L682.666667 213.333333C800.426667 213.333333 896 308.906667 896 426.666667 896 615.253333 724.053333 768 512 768Z"  horiz-adv-x="1024" />

    
    <glyph glyph-name="rounded-rect" unicode="&#58956;" d="M64 768.380142L64 768.380142 64-0.3801409999999805C64-35.452057999999965 92.530723-64 127.619858-64L896.380141-64C931.452058-64 960-35.469280000000026 960-0.3801409999999805L960 768.380142C960 803.452056 931.46928 832 896.380141 832L127.619858 832C92.547944 832 64 803.469277 64 768.380142L64 768.380142ZM0 768.380142C0 838.862643 57.24888 896 127.619858 896L896.380141 896C966.862643 896 1024 838.75112 1024 768.380142L1024-0.3801409999999805C1024-70.86264300000005 966.751117-128 896.380141-128L127.619858-128C57.137357-128 0-70.75111700000002 0-0.3801409999999805L0 768.380142 0 768.380142Z"  horiz-adv-x="1024" />

    
    <glyph glyph-name="unselected" unicode="&#58883;" d="M512-96C247.296-96 32 119.29600000000005 32 384S247.296 864 512 864s480-215.296 480-480-215.296-480-480-480zM512 832c247.04 0 448-200.96 448-448S759.04-64 512-64 64 136.96000000000004 64 384 264.96 832 512 832m0 64a512 512 0 1 1 0-1024A512 512 0 0 1 512 896z"  horiz-adv-x="1024" />

    
    <glyph glyph-name="selected" unicode="&#58882;" d="M512 896a512 512 0 1 1 0-1024A512 512 0 0 1 512 896z m13.632-687.296l-81.856-80.512-81.92 80.512L170.88 396.672l81.856 80.576 191.04-187.968 327.488 322.24 81.856-80.576-327.488-322.24z"  horiz-adv-x="1024" />

    
    <glyph glyph-name="shangyiyiceng" unicode="&#58954;" d="M157.5788807570935 487.99460792541504L500.34105297923094 331.1336603164673c3.69340181350708-1.665651798248291 7.676482200622559-2.5346875190734863 11.659562587738039-2.5346875190734863 3.9830803871154785 0 7.966160774230957 0.8690357208251953 11.659562587738039 2.5346875190734863l342.68975257873535 156.86094760894775c10.138750076293945 4.634857177734375 16.43925905227661 14.483928680419922 16.36683940887451 25.63655376434326-0.07241964340209961 11.15262508392334-6.372928619384766 20.929276943206787-16.58409833908081 25.491714477539062L523.5153388679028 693.3042969703674a28.345048427581787 28.345048427581787 0 0 1-23.029446601867676 0L157.79613968729979 539.1228761672974C147.5849699676038 534.5604386329651 141.28446099162107 524.7837867736816 141.21204134821897 513.6311616897583c-0.07241964340209961-11.15262508392334 6.228089332580566-20.929276943206787 16.36683940887451-25.63655376434326z m708.6262106895447-205.2372694015503l-91.03149175643921 40.91709852218628c-9.12487506866455 4.127919673919678-19.842982292175293 0-23.97090196609497-9.052455425262451-4.127919673919678-9.12487506866455 0-19.842982292175293 9.052455425262451-23.97090196609497L834.9922251403333 257.1207847595215 512.0006155669689 109.23987293243408 189.00900599360472 257.1207847595215l74.5922327041626 33.60271453857422c9.12487506866455 4.127919673919678 13.180375099182129 14.84602689743042 9.052455425262451 23.97090196609497s-14.84602689743042 13.180375099182129-23.97090196609497 9.052455425262451L157.79613968729979 282.75733852386475C147.5849699676038 278.19490098953247 141.28446099162107 268.418249130249 141.21204134821897 257.2656240463257c-0.07241964340209961-11.15262508392334 6.228089332580566-21.001696586608887 16.36683940887451-25.63655376434326L500.34105297923094 74.76812267303467c3.69340181350708-1.665651798248291 7.676482200622559-2.5346875190734863 11.659562587738039-2.5346875190734863s7.966160774230957 0.8690357208251953 11.659562587738039 2.5346875190734863l342.68975257873535 156.86094760894775c10.138750076293945 4.634857177734375 16.43925905227661 14.483928680419922 16.36683940887451 25.63655376434326s-6.300508975982666 20.929276943206787-16.51167869567871 25.491714477539062z"  horiz-adv-x="1024" />

    
    <glyph glyph-name="xiayiyiceng" unicode="&#58955;" d="M133.95080614089972 494.9275817871094L499.563789844513 327.60923767089844c3.9396286010742188-1.7766952514648438 8.188247680664062-2.7036666870117188 12.436866760253908-2.7036666870117188 4.248619079589844 0 8.497238159179688 0.926971435546875 12.436866760253908 2.7036666870117188l365.5357360839844 167.31834411621094c10.814666748046875 4.94384765625 17.53520965576172 15.44952392578125 17.457962036132812 27.345657348632812-0.07724761962890625 11.896133422851562-6.79779052734375 22.324562072753906-17.68970489501953 27.191162109375L524.2830281257629 713.9245834350586a30.234718322753906 30.234718322753906 0 0 1-24.564743041992188 0L134.18254899978643 549.4644012451172C123.29063463211071 544.5978012084961 116.57009172439581 534.1693725585938 116.4928441047669 522.2732391357422c-0.07724761962890625-11.896133422851562 6.6432952880859375-22.324562072753906 17.457962036132812-27.345657348632812zM512.0006566047668 677.0774688720703l344.5243835449219-154.95872497558594-344.5243835449219-157.73963928222656L167.47627305984503 522.1187438964844l344.5243835449219 154.95872497558594zM889.8187642097474 276.00782775878906L712.3037343025208 355.8818664550781c-10.660171508789062 4.7893524169921875-22.788047790527344 4.712104797363281-33.3709716796875-0.07724761962890625l-166.8548583984375-76.39789581298828-166.8548583984375 76.39789581298828c-10.582923889160156 4.866600036621094-22.788047790527344 4.866600036621094-33.3709716796875 0.07724761962890625l-177.66952514648438-79.87403869628906C123.29063463211071 271.14122772216797 116.57009172439581 260.7127990722656 116.4928441047669 248.81666564941406c-0.07724761962890625-11.896133422851562 6.6432952880859375-22.401809692382812 17.457962036132812-27.345657348632812L499.563789844513 54.15266418457031c3.9396286010742188-1.7766952514648438 8.188247680664062-2.7036666870117188 12.436866760253908-2.7036666870117188 4.248619079589844 0 8.497238159179688 0.926971435546875 12.436866760253908 2.7036666870117188l365.5357360839844 167.31834411621094c10.814666748046875 4.94384765625 17.53520965576172 15.44952392578125 17.457962036132812 27.345657348632812 0 11.896133422851562-6.720542907714844 22.324562072753906-17.612457275390625 27.191162109375z"  horiz-adv-x="1024" />

    
    <glyph glyph-name="bring-upper" unicode="&#58880;" d="M56.889 384h341.333v-56.889H56.89z m512 0h341.333v-56.889H568.89zM512 731.0219999999999l136.533-130.844L688.356 640l-204.8 199.111L284.444 640l39.823-39.822L455.11 731.0219999999999v-517.689H56.89v-227.555h853.333V213.33299999999997H512v517.69z m341.333-574.578v-113.777H113.778V156.44399999999996h739.555z"  horiz-adv-x="1024" />

    
    <glyph glyph-name="send-next" unicode="&#58881;" d="M56.889 839.111v-227.555H455.11v-517.69L324.267 224.712l-39.823-39.822 199.112-199.111 204.8 199.11-39.823 39.823L512 93.86699999999996V611.556h398.222V839.11H56.89z m796.444-170.667H113.778V782.222h739.555v-113.778zM56.889 497.778h341.333v-56.89H56.89z m512 0h341.333v-56.89H568.89z"  horiz-adv-x="1024" />

    
    <glyph glyph-name="bring-front" unicode="&#58951;" d="M991.985184 528.01023H847.91851V688.005292a32.037394 32.037394 0 0 1-31.992239 32.003527H655.987653V863.996472A32.037394 32.037394 0 0 1 623.995414 896H32.07126A32.037394 32.037394 0 0 1 0.067732 863.996472v-592.014463a32.037394 32.037394 0 0 1 32.003528-31.992239h159.927329v-143.998942a32.037394 32.037394 0 0 1 32.003528-31.992239h144.055385v-160.00635a32.037394 32.037394 0 0 1 32.003528-31.992239h591.935442a32.026105 32.026105 0 0 1 31.992239 31.992239V496.006703a32.059971 32.059971 0 0 1-32.003527 32.003527zM224.002117 239.98977000000002h400.004586a32.026105 32.026105 0 0 1 31.992239 31.992239V688.005292h159.938617l-0.045155-592.014464H384.279396l-0.225775 0.022577-0.225774-0.022577H224.002117V239.98977000000002z m767.983067-335.997531H400.049741V63.99858900000004h415.87653a32.026105 32.026105 0 0 1 31.992239 31.992239V496.006703h144.066674v-592.014464z"  horiz-adv-x="1024" />

    
    <glyph glyph-name="send-bottom" unicode="&#58952;" d="M991.92874 528.0328079999999H847.986242V688.005292a32.037394 32.037394 0 0 1-31.992239 32.003527H655.987653V863.996472A32.037394 32.037394 0 0 1 623.995414 896H32.07126A32.037394 32.037394 0 0 1 0.067732 863.996472v-592.014463a32.037394 32.037394 0 0 1 32.003528-31.992239h159.995061v-143.998942a32.037394 32.037394 0 0 1 32.003528-31.992239h143.931209v-159.983773a32.037394 32.037394 0 0 1 32.003528-31.992239H991.940029a32.026105 32.026105 0 0 1 31.992239 31.992239V496.02928a32.059971 32.059971 0 0 1-32.003528 32.003528zM32.07126 863.996472h591.935443l-0.045155-592.014463H208.288215l-0.225774 0.022577-0.225775-0.022577H32.07126V863.996472z m191.998589-624.006702h399.936854a32.026105 32.026105 0 0 1 31.992239 31.992239V688.005292h160.00635v-592.014464l-416.000706 0.022577-0.225774-0.022577H224.069849V239.98977000000002z"  horiz-adv-x="1024" />

    
    <glyph glyph-name="confidence-band" unicode="&#59029;" d="M932.977778 54.044444l0-11.377778c0-6.280533-5.097244-11.377778-11.377778-11.377778L147.911111 31.28888900000004c-25.133511 0-45.511111 20.3776-45.511111 45.511111L102.4 725.333333c0 6.280533 5.097244 11.377778 11.377778 11.377778l11.377778 0c6.280533 0 11.377778-5.097244 11.377778-11.377778l0-648.533333c0-6.280533 5.097244-11.377778 11.377778-11.377778l773.688889 0C927.880533 65.42222200000003 932.977778 60.32497799999999 932.977778 54.044444zM618.450489 589.539556L484.681956 474.680889c-3.720533-3.185778-9.056711-3.640889-13.255111-1.1264l-145.442133 87.131022c-4.391822 2.628267-10.012444 2.002489-13.710222-1.536L174.1824 426.951111C171.9296 424.812089 170.666667 421.842489 170.666667 418.736356l0-128.955733c0-10.0352 12.037689-15.1552 19.262578-8.203378l121.776356 117.122844c3.6864 3.549867 9.284267 4.1984 13.687467 1.592889l167.332978-99.157333c3.822933-2.264178 8.612978-2.093511 12.265244 0.432356l135.941689 93.923556c1.103644 0.762311 2.332444 1.319822 3.618133 1.661156l268.504178 69.313422C918.084267 467.740444 921.6 472.280178 921.6 477.468444L921.6 659.638044c0 7.520711-7.168 12.970667-14.415644 10.968178L622.819556 591.8720000000001C621.203911 591.4168890000001 619.713422 590.620444 618.450489 589.539556zM641.444978 351.08408899999995l-134.2464-93.752889c-3.640889-2.548622-8.442311-2.730667-12.276622-0.489244l-168.982756 99.134578c-4.391822 2.571378-9.955556 1.922844-13.630578-1.592889L174.1824 222.15111100000001C171.9296 220.01208899999995 170.666667 217.04248900000005 170.666667 213.93635600000005L170.666667 110.93333299999995c0-6.280533 5.097244-11.377778 11.377778-11.377778l728.177778 0c6.280533 0 11.377778 5.097244 11.377778 11.377778L921.6 409.588622c0 7.441067-7.020089 12.879644-14.222222 11.013689l-262.257778-67.834311C643.800178 352.42666699999995 642.56 351.85777800000005 641.444978 351.08408899999995z"  horiz-adv-x="1024" />

    
    <glyph glyph-name="parallel" unicode="&#58890;" d="M44.032 831.488L30.72 817.664v-867.328l13.312-13.824c19.456-18.944 56.32-18.944 75.776 0 11.776 12.288 13.312 17.92 13.824 50.176v36.352l90.624 69.632 90.624 70.144 1.536-106.496 1.024-106.496 13.824-13.312c18.944-18.944 55.808-18.944 75.264 0l13.312 13.824v263.68l16.896 5.632c8.704 2.56 47.616 13.312 85.504 23.552 37.888 10.24 73.216 19.968 78.336 20.992 8.192 2.56 8.704-7.168 8.704-155.648v-158.208l13.312-13.824c19.456-18.944 56.32-18.944 75.264 0l13.824 13.312 1.024 140.8 1.536 140.8 88.576-105.984 88.064-105.984v-34.816c0-30.208 1.536-35.84 13.312-48.128 19.456-18.944 56.32-18.944 75.776 0l13.312 13.824V817.664l-13.312 13.824c-19.456 18.944-56.32 18.944-75.264 0l-13.824-13.312-1.024-109.056-1.536-109.056-88.064 73.728L711.68 748.032v34.816c0 30.72-1.536 36.352-13.312 48.64-10.752 10.752-18.432 13.312-37.888 13.312-33.28 0-51.2-17.408-51.2-49.152V773.12H419.84v22.528c0 31.744-17.92 49.152-51.2 49.152-35.328 0-51.2-16.896-51.2-54.272V762.88L226.816 641.5360000000001 135.68 520.704l-1.536 148.48-1.024 148.992-13.824 13.312c-18.944 18.944-55.808 18.944-75.264 0z m565.248-266.24v-166.4l-80.384 65.024c-44.544 35.84-87.04 71.168-94.72 77.824L419.84 555.008V732.16h189.44v-166.912zM317.44 628.736v-52.736L255.488 542.72c-33.792-18.432-64-34.304-66.56-35.328-3.072-1.024 24.064 37.888 59.904 86.016 36.352 48.128 66.56 87.552 67.072 87.552 1.024 0 1.536-23.552 1.536-52.224z m475.648-9.728c40.96-34.304 77.824-65.024 81.408-68.608 5.12-4.608-10.752-22.528-78.336-86.528L711.68 382.976V531.9680000000001c0 81.92 1.536 148.992 3.072 148.992 2.048 0 36.864-28.16 78.336-61.952z m-477.696-325.632c-2.56-2.56-172.032 126.976-172.032 131.072 0 1.536 38.912 24.064 86.016 50.176l85.504 46.592 1.536-112.64c0.512-62.464 0.512-114.176-1.024-115.2z m292.864 32.768c-1.536-9.728-12.288-13.824-80.896-32.768-43.52-11.776-85.504-23.04-93.184-25.088l-14.336-3.072V491.52l95.232-77.312c75.264-61.44 94.208-79.872 93.184-88.064z m281.088-52.736c-1.536-2.048-147.456 58.88-152.064 62.976-1.536 1.536 32.256 35.84 74.24 75.776l76.8 73.216 1.536-104.96c0.512-57.856 0.512-105.984-0.512-107.008z m-654.848 18.944c45.568-34.816 81.408-65.024 80.384-67.584-1.536-2.048-33.28-27.648-70.656-56.32-36.864-29.184-77.312-60.416-89.6-70.144l-21.504-17.408v143.872c0 138.24 0.512 144.384 9.216 137.728 5.12-3.584 46.592-35.328 92.16-70.144z m599.04-48.64l57.344-24.576v-61.952c0-52.224-1.024-60.928-6.656-54.784-4.096 4.096-36.864 43.52-72.704 87.04-36.352 43.52-69.12 83.456-73.728 88.576-7.168 8.704-6.144 8.704 14.848-0.512 12.8-5.12 49.152-20.48 80.896-33.792z"  horiz-adv-x="1024" />

    
    <glyph glyph-name="calendar1" unicode="&#59015;" d="M708.875 808.54166666c-15.46875001 0-28.125-12.65625001-28.125-28.125s12.65625001-28.125 28.125-28.125c92.8125 0 168.75-75.9375 168.75-168.75v-393.75c0-92.8125-75.9375-168.75-168.75-168.75H315.125c-92.8125 0-168.75 75.9375-168.75 168.75V583.5416666599999c0 92.8125 75.9375 168.75 168.75 168.75 15.46875001 0 28.125 12.65625001 28.125 28.125s-12.65625001 28.125-28.125 28.125C191.375 808.54166666 90.125 707.29166666 90.125 583.5416666599999v-393.75c0-123.75 101.25-225 225-225h393.75c123.75 0 225 101.25 225 225V583.5416666599999c0 123.75-101.25 225-225 225zM596.375 752.29166666h-168.75c-15.46875001 0-28.125 12.65625001-28.125 28.125s12.65625001 28.125 28.125 28.125h168.75c15.46875001 0 28.125-12.65625001 28.125-28.125s-12.65625001-28.125-28.125-28.125zM600.2421875 417.95572916c31.9921875 25.6640625 52.3828125 65.0390625 52.3828125 109.3359375 0 77.6953125-62.9296875 140.625-140.625 140.625S371.375 604.9869791599999 371.375 527.2916666599999c0-44.296875 20.390625-83.671875 52.3828125-109.3359375C375.2421875 388.07291666 343.25 334.98697916000003 343.25 274.16666666000003c0-93.1640625 75.5859375-168.75 168.75-168.75s168.75 75.5859375 168.75 168.75c0 60.8203125-31.9921875 113.90625001-80.5078125 143.7890625zM427.625 527.2916666599999c0 46.7578125 37.6171875 84.375 84.375 84.375s84.375-37.6171875 84.375-84.375-37.6171875-84.375-84.375-84.375-84.375 37.6171875-84.375 84.375z m84.375-365.625c-62.2265625 0-112.5 50.2734375-112.5 112.5s50.2734375 112.5 112.5 112.5 112.5-50.2734375 112.5-112.5-50.2734375-112.5-112.5-112.5z"  horiz-adv-x="1024" />

    
    <glyph glyph-name="waterfall" unicode="&#58886;" d="M835.584 790.7328c-21.2992-6.144-37.888-18.0224-45.2608-32.3584-3.4816-6.9632-3.8912-12.4928-3.8912-61.6448 0-60.0064 1.2288-67.584 13.1072-80.0768 9.8304-10.4448 25.6-15.36 54.8864-16.7936 31.1296-1.6384 58.5728 1.4336 71.2704 7.9872 6.3488 3.2768 10.8544 7.5776 14.336 13.9264 5.12 9.0112 5.12 9.4208 5.7344 66.9696 0.8192 67.3792 0 72.4992-14.7456 86.016-13.9264 12.9024-28.2624 17.2032-59.5968 18.0224-17.8176 0.4096-29.696-0.2048-35.84-2.048zM95.232 761.2416000000001c-5.7344-2.048-13.312-5.7344-16.9984-8.192-13.7216-9.8304-12.9024 17.2032-12.288-345.9072l0.6144-329.3184 5.5296-15.1552c10.4448-28.4672 26.2144-45.8752 50.7904-55.9104l11.264-4.7104 398.5408-0.6144 398.5408-0.4096 9.216 6.9632c10.24 7.9872 20.0704 24.7808 20.0704 34.4064 0 9.0112-5.3248 17.408-12.6976 20.0704-5.12 1.8432-97.6896 2.2528-379.904 2.048-347.136-0.2048-373.5552 0-379.904 3.2768-11.8784 6.144-35.2256 22.7328-41.7792 29.696-3.6864 3.8912-8.6016 10.6496-10.8544 15.1552l-4.3008 8.192V432.3328c0.2048 286.72 0 312.1152-3.2768 320.1024-5.3248 13.312-13.312 15.5648-32.5632 8.8064zM634.88 743.6288c-21.2992-6.144-37.888-18.0224-45.2608-32.3584-3.4816-6.9632-3.8912-12.4928-3.8912-61.6448 0-60.0064 1.2288-67.584 13.1072-80.0768 9.8304-10.4448 25.6-15.36 54.8864-16.7936 31.1296-1.6384 58.5728 1.4336 71.2704 7.9872 6.3488 3.2768 10.8544 7.5776 14.336 13.9264 5.12 9.0112 5.12 9.4208 5.7344 66.9696 0.8192 67.3792 0 72.4992-14.7456 86.016-13.9264 12.9024-28.2624 17.2032-59.5968 18.0224-17.8176 0.4096-29.696-0.2048-35.84-2.048zM436.224 680.1408c-21.2992-6.144-37.888-18.0224-45.2608-32.3584-3.4816-6.9632-3.8912-12.4928-3.8912-61.6448 0-60.0064 1.2288-67.584 13.1072-80.0768 9.8304-10.4448 25.6-15.36 54.8864-16.7936 31.1296-1.6384 58.5728 1.4336 71.2704 7.9872 6.3488 3.2768 10.8544 7.5776 14.336 13.9264 5.12 9.0112 5.12 9.4208 5.7344 66.9696 0.8192 67.3792 0 72.4992-14.7456 86.016-13.9264 12.9024-28.2624 17.2032-59.5968 18.0224-17.8176 0.4096-29.696-0.2048-35.84-2.048zM224.6656 588.5952c-10.4448-2.4576-21.2992-10.8544-26.624-21.0944l-4.5056-8.3968-0.6144-193.536c-0.4096-137.0112 0-196.608 1.6384-204.1856 3.2768-14.9504 11.4688-25.6 24.7808-31.3344 10.4448-4.5056 13.5168-4.9152 49.9712-4.9152 44.2368 0 53.8624 1.6384 66.3552 12.288 16.384 14.1312 15.5648 1.8432 15.5648 218.9312 0 210.1248 0.2048 204.3904-11.8784 219.136-11.4688 13.9264-17.2032 15.36-64.9216 15.1552-23.1424-0.2048-45.4656-1.024-49.7664-2.048z"  horiz-adv-x="1024" />

    
    <glyph glyph-name="duplex" unicode="&#59115;" d="M895.872 764.352c-53.568 55.232-228.608 66.88-366.144 66.88L523.648 831.232C519.168 831.36 500.096 832 472.512 832c-103.744 0-241.664-7.872-309.12-45.248C64.512 732.032 61.376 489.728 64.768 386.432c-3.392-104.96-0.256-350.464 98.624-405.248C230.784-56.128 368.64-64 472.384-64c27.584 0 46.72 0.64 51.264 0.768l6.144 0c137.472 0 312.512 11.648 366.08 66.88 60.352 62.272 64.96 286.464 64.064 380.352C960.832 477.952 956.224 702.08 895.872 764.352zM862.528 35.392c-6.016-6.208-14.976-11.712-26.048-16.512L836.48 327.296c0 17.152-13.824 30.912-30.848 30.912l-61.76 0c-17.088 0-30.912-13.824-30.912-30.912l0-335.168c-17.216-1.92-34.496-3.52-51.456-4.736l0 154.624c0 17.152-13.824 30.848-30.848 30.848L568.768 172.864c-17.088 0-30.912-13.76-30.912-30.848l0-159.296c-3.008-0.064-5.952-0.064-8.064-0.064-4.416 0-6.848 0-6.848 0s-14.336-0.448-36.48-0.64l0 237.184c0 17.152-13.824 30.912-30.912 30.912L393.728 250.112c-17.088 0-30.848-13.824-30.848-30.912l0-233.792c-17.152 1.152-34.432 2.816-51.52 4.8L311.36 373.696c0 17.024-13.824 30.784-30.784 30.784L218.688 404.48c-17.088 0-30.848-13.824-30.848-30.784l0-353.216c-0.512 0.256-1.28 0.448-1.792 0.768-85.312 47.296-75.2 355.2-74.88 365.184C110.976 391.616 108.16 480.96 118.528 570.112 138.88 577.28 227.072 602.624 348.672 552.96c76.48-31.168 170.112-96.768 203.52-187.264l26.816-72.896L596.48 368.448c25.088 108.608 77.76 152.512 116.416 170.432l0-55.296c0-5.952 2.048-10.88 6.336-15.04 4.224-4.288 9.344-6.464 15.04-6.4 5.632 0.064 10.752 2.048 14.976 6.4l81.088 81.024c4.224 4.288 6.336 9.344 6.4 15.04-0.064 5.824-2.112 10.816-6.4 14.976l-81.152 81.152c-4.16 4.224-9.344 6.4-14.912 6.4-5.824 0-10.816-2.112-15.04-6.336-4.224-4.288-6.336-9.28-6.4-15.04l0-56.96c-43.072-14.4-106.176-52.416-144.384-152.832-49.088 76.288-132.224 131.456-202.304 160C254.528 641.408 168.512 630.912 125.952 620.416c10.88 58.24 29.12 109.184 60.032 126.272C248.32 781.248 394.88 786.048 472.512 786.048c30.528 0 50.368-0.704 50.368-0.704s2.432 0 6.784 0c43.904 0 283.904-2.368 332.8-52.736 53.888-55.68 51.2-348.608 51.2-348.608S916.352 91.072 862.528 35.392z"  horiz-adv-x="1024" />

    
    <glyph glyph-name="edit-2" unicode="&#58962;" d="M320.68790656 199.13306156l52.13273063 114.28773 65.82736218-63.55197843-117.96009281-50.73575157z m89.83000782 160.91720813l343.50876375 330.81953531 76.87619906-75.10880812-342.87377344-330.08929594-77.51118938 74.37856875z m515.66530687 347.72086875l-47.349135-45.34891406-76.73861719 75.10880812 46.59772875 44.61867563c7.5034725 7.46113969 21.97067531 6.10649344 30.14088844-2.01080438l45.26424937-43.29577687c4.82592844-4.72009688 7.56697125-10.83717375 7.56697125-16.91191782 0.01058344-4.73068031-2.06371969-8.7840375-5.48208562-12.16007062zM326.18057562 366.84466969000005c-0.69849-0.71965594-1.37581312-1.38639656-2.07430312-2.70929344L275.41307469 191.60842219000006c-2.74104281-10.10693437 0-20.94410719 7.56697125-28.41583032 6.16999219-5.41858687 13.69463156-8.70995438 21.92834343-8.70995531 2.75162625 0 4.79417906 0.65615719 7.53522188 1.31231438l178.26303656 46.64006156h0.74082188a7.54580531 7.54580531 0 0 1 5.42917031 2.04255375l475.98897563 458.63256469c14.32962187 13.50413437 21.89659313 31.7706975 21.89659406 52.07981531 0 22.98666094-10.24451531 45.97332187-27.38926313 62.88523875l-45.26424844 43.29577781c-17.82207 16.91191687-41.18972531 27.05060063-65.22412124 27.05060063-21.16635469 0-40.44890344-7.43997375-54.10120125-21.63201469L326.84731531 368.89780594c-0.66674062-0.65615719-0.66674062-1.38639656-0.66673968-2.05313625zM126.62418687 864C74.52320563 864 32 822.09061875 32 770.66696063V-1.8097237499999892c0-51.38132531 42.52320563-93.33303938 94.62418688-93.33303844h755.70234843c52.10098125 0 94.56068812 41.95171406 94.56068813 93.33303844V491.30283281h-80.89780688v-423.49641656c0-45.98390438-37.70786063-82.44295031-83.63884875-82.44295031H196.568405c-45.9415725 0-83.63884875 36.459045-83.63884969 82.44295031V701.66464594c0 45.31716469 37.69727719 82.53819844 83.63884969 82.53819843h429.28541531V864H126.62418687z"  horiz-adv-x="1026" />

    
    <glyph glyph-name="unlink" unicode="&#59075;" d="M143.04 629.056l89.248 164.672c69.12 104.896 207.648 133.344 310.048 65.504l-35.072-53.024c-73.12 48.32-172.064 28-220.48-45.12l-89.248-164.672c-49.728-75.616-29.536-174.528 43.744-222.848 72.768-47.872 153.408-34.816 210.88 34.24l48.896-40.8c-47.232-56.768-107.84-86.048-170.464-86.048-41.696 0-84.224 12.992-124.384 39.456-102.496 67.712-130.88 206.176-63.136 308.64zM264.416 444.768l-8.288-8.224 44.864-45.12 8.352 8.288c62.048 62.048 163.008 62.048 225.024 0s62.048-163.008 0-225.024l-192.416-192.48c-62.048-62.048-163.008-62.048-225.024 0s-62.048 163.008 0 225.024l67.36 67.424-44.992 44.992-67.36-67.456c-86.816-86.816-86.816-228.192 0-315.008 43.488-43.488 100.448-65.12 157.536-65.12s114.08 21.696 157.536 65.12l192.416 192.48c86.816 86.816 86.816 228.192 0 315.008-87.008 87.008-228.32 86.816-315.008 0.128zM705.024 510.592l259.328 0 0 63.648-259.328 0 0-63.648zM675.232 424.832l124.192-71.744 31.84 55.072-124.192 71.744-31.84-55.072zM691.456 882.56l-100.576-174.208 55.072-31.84 100.576 174.144-55.072 31.904zM1017.184 782.688l-31.84 55.072-317.76-183.456 31.84-55.072 317.76 183.456z"  horiz-adv-x="1024" />

    
    <glyph glyph-name="jiedian" unicode="&#59326;" d="M846.530564 159.510156c-27.293623 0-51.40988-10.962679-70.810742-27.073612L604.611769 254.544603c10.852162 22.36231 17.428951 46.915519 17.428951 73.332169 0 36.283368-11.837606 69.823252-31.350009 97.228415L790.845311 625.368256c16.660448-9.755178 34.966373-16.880459 55.685253-16.880459 62.041008 0 112.243387 50.204425 112.243387 112.245434S908.571572 832.978664 846.530564 832.978664c-62.043055 0-112.24441-50.203402-112.24441-112.24441 0-20.716834 7.123234-39.022759 16.880459-55.68423L551.009967 464.784908c-27.624151 19.730367-60.945047 31.459502-97.336886 31.459502-64.233953 0-119.479185-36.501332-147.868769-89.555665L170.650123 451.850317c-5.480828 25.212218-26.856671 44.394093-53.737902 44.394093-31.021527 0-56.122205-25.101701-56.122205-56.123228 0-31.019481 25.100678-56.121182 56.122205-56.121182 14.167674 0 26.77276 5.699816 36.638455 14.358009l134.38671-44.833091c-1.315972-8.439206-2.63092-16.880459-2.63092-25.648147 0-92.952019 75.413574-168.366615 168.366615-168.366615 46.257533 0 88.240717 18.742876 118.712729 48.996924L742.395856 87.165478c-4.822842-12.495592-8.110725-25.759687-8.110725-39.900755 0-61.931514 50.202379-112.243387 112.24441-112.243387 62.041008 0 112.243387 50.311873 112.243387 112.243387C958.772928 109.19726 908.571572 159.510156 846.530564 159.510156z"  horiz-adv-x="1024" />

    
    <glyph glyph-name="china" unicode="&#58889;" d="M902.4 748.80166666c12.8 0 25.6 0 44.8 0 6.4-12.8 12.8-25.6 19.2-32 19.2 12.8 38.4 25.6 57.6 32 0-12.8 0-25.6 0-32 0 0-6.4 0-6.4 0 0-19.2 0-32 0-51.2-19.2 0-19.2-6.4-32-6.4 6.4-19.2 6.4-32 6.4-64-6.4 0-12.8 6.4-19.2 6.4-12.8-12.8 6.4-19.2-25.6-25.6 0-6.4 0-12.8 0-19.2-6.4 0-19.2 0-25.6 0-12.8-19.2-19.2-19.2-25.6-44.8-38.4 0-44.8-19.2-64-32 0 6.4 0 19.2 0 25.6 0 0 6.4 0 6.4 0 0 6.4 0 19.2 0 25.6-6.4 0-12.8 0-19.2 0-6.4-19.2-19.2-38.4-32-51.2-6.4 0-12.8 0-19.2 0-6.4-6.4 6.4-6.4 6.4-6.4 12.8-12.8 0-6.4 19.2-6.4 0-6.4 0-12.8 0-19.2 6.4 0 12.8 0 19.2 0 0 6.4 6.4 12.8 6.4 19.2 12.8 0 25.6-6.4 44.8-6.4 0-6.4 0-12.8 0-19.2-6.4 0-19.2 0-25.6 0-12.8-25.6-19.2-12.8-25.6-51.2 19.2-12.8 32-25.6 32-51.2 6.4 0 12.8 0 19.2 0 0-6.4-6.4-19.2-6.4-25.6 0 0 6.4 0 6.4 0 0 0 0-6.4 0-6.4 0 0-6.4 0-6.4 0 0 0 0-6.4 0-6.4 0-6.4 32-12.8 19.2-44.8-6.4 0-12.8-6.4-19.2-6.4 0-6.4 0-19.2 0-25.6 0 0-6.4 0-6.4 0-6.4-12.8-6.4-19.2-6.4-44.8-6.4 0-12.8 0-19.2 0 0-6.4 0-12.8 0-19.2-6.4 0-12.8 0-19.2 0-6.4-25.6-19.2-38.4-44.8-44.8 0 0 0-6.4 0-6.4-12.8 0-25.6 0-32 0 0-6.4 0-12.8 0-19.2-19.2 6.4 0 6.4-6.4 19.2 0 0-6.4 0-6.4 0 0-6.4 0-12.8 0-19.2-12.8-12.8-51.2-12.8-70.4-19.2 0 0 0-6.4 0-6.4 25.6-19.2 12.8-25.6 6.4-51.2-12.8 0-32-6.4-44.8-6.4 0 12.8 0 25.6 0 32 6.4 0 19.2 6.4 25.6 6.4 0 6.4-6.4 19.2-6.4 25.6-19.2 0-38.4 6.4-57.6 6.4 0 6.4 0 19.2 0 25.6-38.4 6.4-51.2 0-102.4 0 0-12.8 0-25.6 0-32 0 0-6.4 0-6.4 0-19.2 25.6-12.8 6.4-32 19.2-6.4 12.8-6.4 12.8-19.2 19.2 0 0 0 6.4 0 6.4 0 0 6.4 0 6.4 0 0 6.4-6.4 19.2-6.4 32-6.4 0-19.2 0-25.6 0 6.4 25.6 6.4 25.6 19.2 44.8 0 0 6.4 0 6.4 0 12.8 19.2-6.4 44.8-6.4 64-25.6-19.2-19.2-6.4-19.2-25.6-25.6 6.4-19.2 12.8-44.8 19.2-12.8-19.2-32-25.6-64-25.6-6.4 12.8-6.4 12.8-12.8 32-19.2 0-32 6.4-44.8 6.4 0-6.4 0-12.8 0-19.2-19.2 6.4-19.2 6.4-6.4 19.2-19.2 0-38.4 6.4-57.6 6.4 0 6.4-6.4 12.8-6.4 19.2-12.8 6.4-19.2 6.4-25.6 12.8-19.2 25.6-12.8 44.8-57.6 51.2-12.8 32-25.6 32-25.6 76.8 6.4 0 12.8-6.4 19.2-6.4 0 19.2 0 32 0 51.2 0 0-6.4 0-6.4 0 0 6.4 6.4 12.8 6.4 19.2 0 0-6.4 0-6.4 0-25.6 19.2-32 0-32 51.2-6.4 0-12.8 0-19.2 0 0 6.4 0 12.8 0 19.2 6.4 0 12.8-6.4 19.2-6.4 0 6.4 0 19.2 0 25.6-12.8 6.4-12.8 0-19.2 19.2 19.2 12.8 25.6 19.2 51.2 25.6 0-6.4 0-12.8 0-19.2 25.6 6.4 57.6 12.8 89.6 19.2 6.4 38.4 19.2 19.2 6.4 64 6.4 0 19.2 0 25.6 0 0 0 0 6.4 0 6.4 6.4 0 12.8-6.4 19.2-6.4 0 6.4 0 12.8 0 19.2 6.4 0 12.8 6.4 19.2 6.4 0 0 0 6.4 0 6.4 6.4 12.8 0 0 6.4 6.4 12.8-19.2 6.4-12.8 32-19.2 0 6.4 0 19.2 0 25.6 0 0 6.4 0 6.4 0 12.8 12.8 12.8 12.8 32 19.2 12.8-38.4 38.4-32 44.8-89.6-12.8-12.8-6.4 0-6.4-19.2 44.8-6.4 70.4-25.6 76.8-70.4 25.6 0 51.2-6.4 76.8-6.4 0 0 0-6.4 0-6.4 6.4 0 12.8 0 19.2 0 0 0 0-6.4 0-6.4 12.8 0 25.6-6.4 44.8-6.4 0 0 0-6.4 0-6.4 6.4 0 19.2 6.4 25.6 6.4 0 0 0 6.4 0 6.4 19.2 0 38.4 0 57.6 0 12.8 12.8 19.2 19.2 25.6 32 6.4 0 12.8 0 19.2 0 0 6.4-12.8 19.2-6.4 32 0 0 6.4 0 6.4 0 0 0 0 6.4 0 6.4 38.4-12.8 32 0 70.4 6.4 0 6.4 0 12.8 0 19.2 19.2 0 32 6.4 51.2 6.4 0 6.4-6.4 19.2-6.4 25.6-32 0-38.4-12.8-51.2 0 0 0-6.4 0-6.4 0 0 12.8 6.4 32 6.4 44.8 12.8 0 25.6 0 32 0 0 12.8 0 19.2 0 32 0 0 6.4 0 6.4 0 0 6.4 0 12.8 0 19.2 0 0 6.4 0 6.4 0 6.4 19.2-6.4 25.6-6.4 32 0 0 6.4 0 6.4 0 19.2 19.2 44.8 19.2 76.8 19.2 12.8-32 32-44.8 44.8-83.2zM876.8 179.20166666c6.4 0 12.8-6.4 19.2-6.4-6.4-25.6-12.8-51.2-19.2-76.8 0 0-6.4 0-6.4 0-12.8 25.6-12.8 12.8-19.2 51.2 6.4 6.4 19.2 19.2 25.6 32z"  horiz-adv-x="1024" />

    
    <glyph glyph-name="chexiao" unicode="&#58884;" d="M531.6803 529.8002l-6.35392 0c0 71.1414 0 126.9494 0 143.1818 0 53.5388-30.72 75.8436-68.5312 45.4236L104.9661 435.3587c-37.8112-30.4292-37.7856-80.1372 0.0584-110.5039l349.1471-280.1306c37.8399-30.3432 71.1547 0.4844 71.1547 45.5434 0 14.5111 0 74.5359 0 151.0339l52.885504 0c152.6743 0 269.1236-65.9579 340.5445-193.2196 13.995-23.0943 28.673-18.0582 28.673 0C944.3871 274.8324 752.3512 529.8002 531.6803 529.8002z"  horiz-adv-x="1024" />

    
    <glyph glyph-name="qianjin" unicode="&#58950;" d="M919.084032 456.69614933L567.256064 739.74101333c-37.8112 30.416896-68.517888 8.114176-68.517888-45.422592 0-16.234496 0-72.042496 0-143.183872l-6.380544 0c-220.652544 0-412.688384-254.962688-415.73376-481.719296 0-18.057216 14.67392-23.09632 28.664832 0 71.416832 127.261696 187.874304 193.225728 340.540416 193.225728l52.909056 0c0-76.507136 0-136.531968 0-151.04 0-45.059072 33.293312-75.886592 71.145472-45.544448l349.14816 280.126464C956.87168 376.54869333 956.895232 426.27003733 919.084032 456.69614933z"  horiz-adv-x="1024" />

    
    <glyph glyph-name="fuzhi" unicode="&#58906;" d="M442.656167 384.810459 442.656167 577.166441 378.537847 641.285784 378.537847 320.691115 699.131493 320.691115 635.014196 384.810459ZM378.537847 577.166441 635.014196 320.691115 635.014196 128.33104 699.131493 128.33104 699.131493 347.240795 405.086503 641.285784 378.537847 641.285784 378.537847 577.166441ZM635.014196 0.0944 186.180841 0.0944 186.180841 577.166441 314.418504 577.166441 314.418504 641.285784 122.061498 641.285784 122.061498-64.024943 699.131493-64.024943 699.131493 64.21272 635.014196 64.21272ZM891.489522 603.71612 661.561829 833.64279 378.537847 833.64279 378.537847 705.405127 442.656167 705.405127 442.656167 769.523447 635.014196 769.523447 827.370179 577.166441 827.370179 192.449359 763.250836 192.449359 763.250836 128.33104 891.489522 128.33104ZM635.014196 128.33104l64.117296 0 0-64.11832-64.117296 0 0 64.11832ZM314.418504 641.285784l64.119343 0 0-64.119343-64.119343 0 0 64.119343ZM699.131493 641.285784 699.131493 769.523447 635.014196 833.64279 635.014196 577.166441 891.489522 577.166441 827.370179 641.285784ZM250.299161 513.048121l64.119343 0 0-64.119343-64.119343 0 0 64.119343ZM250.299161 384.810459l64.119343 0 0-64.119343-64.119343 0 0 64.119343ZM250.299161 256.569726l320.594669 0 0-64.119343-320.594669 0 0 64.119343ZM250.299161 128.33104l320.594669 0 0-64.11832-320.594669 0 0 64.11832Z"  horiz-adv-x="1024" />

    
    <glyph glyph-name="niantie" unicode="&#58909;" d="M645.8051132202149 716.2750122070313H535.255859375V771.6166900634765C535.2653762817383 802.0664657592773 510.3916427612305 826.96875 480.000698852539 826.96875H369.4505798339844c-30.381427001953128 0-55.27505950927735-24.902284240722658-55.27505950927735-55.35205993652344v-55.341677856445315H203.65481719970705v-126.08257598876955H645.8163604736328v126.08171081542969z m-165.8044143676758 0H369.4505798339844V771.5016220092773l0.1159332275390625 0.10555114746093751h110.35718536376953c0.019033813476562498-0.019033813476562498 0.07700042724609374-0.04844970703125 0.0951690673828125-0.09603424072265626l-0.018168640136718747-55.24564361572265z m276.34501647949224-27.67689514160156a27.73399658203125 27.73399658203125 0 0 1-27.637962341308594 27.67689514160156h-55.274194335937494v-55.35205993652344h27.637097167968747V564.509765625l-526.0349075317382-0.19293365478515626 0.9724548339843752 96.60525512695311v55.35292510986328H120.74266052246088a27.73399658203125 27.73399658203125 0 0 1-27.637097167968747-27.685546875v-644.9339492797851a27.73399658203125 27.73399658203125 0 0 1 27.637097167968747-27.66651306152344h263.78789062500005v-74.59178466796874h376.84182128906247l160.78813934326172 152.74635314941406V501.38671875H756.3457153320313V688.5894653320313z m5.912594604492187-668.9208801269531V92.06455993652344h81.74676818847655l-81.75628509521484-72.38732299804687zM866.8854522705078 147.39672088623047H706.983250427246v-150.64744262695314H439.79609374999995V446.0441757202149H866.8854522705078v-298.6379379272461zM511.9134826660156 327.3579666137696h283.74051818847664v-55.64102783203125H511.9134826660156v55.64102783203125z m0-156.27193450927734h143.86880950927736v-55.64102783203125h-143.8696746826172v55.64102783203125z"  horiz-adv-x="1024" />

    
    <glyph glyph-name="text" unicode="&#58938;" d="M853.333333 597.333333l-256 0 0-597.333333-170.666667 0L426.666667 597.333333 170.666667 597.333333 170.666667 725.333333l682.666667 0L853.333333 597.333333z"  horiz-adv-x="1024" />

    
    <glyph glyph-name="found" unicode="&#58893;" d="M129.28-27.2384c-40.3456 0-69.632 9.728-82.5856 32.1536-22.2208 38.5536 4.352 94.208 81.2544 170.0864l35.9424-36.4032c-70.3488-69.4272-76.3392-102.144-72.8576-108.0832 21.1968-28.7744 269.312 17.5104 581.4784 197.7344 134.7072 77.7728 254.5152 162.0992 337.408 237.4144 95.744 87.04 102.5536 126.9248 99.1744 132.864-9.3184 6.4-77.4144 9.984-156.0064-9.5744l-12.3904 49.7152c1.8432 0.4096 179.0464 43.776 212.6848-14.5408 24.7808-42.9056-10.8544-107.1616-109.0048-196.352-85.5552-77.7728-208.4864-164.352-346.2656-243.8656C515.9936 78.7456 262.5024-27.2384 129.28-27.2384zM563.2-102.4c-268.1856 0-486.4 218.2144-486.4 486.4S295.0144 870.4 563.2 870.4s486.4-218.2144 486.4-486.4S831.3856-102.4 563.2-102.4zM563.2 819.2C323.2256 819.2 128 623.9744 128 384c0-239.9744 195.2256-435.2 435.2-435.2 239.9744 0 435.2 195.2256 435.2 435.2C998.4 623.9744 803.1744 819.2 563.2 819.2zM265.2672 106.9056c-21.9136 0-43.8784 4.6592-64.5632 13.9264-12.9024 5.8368-18.6368 20.992-12.8 33.8944 5.7856 12.8 20.8896 18.5856 33.8432 12.8 29.6448-13.4144 63.1296-12.4928 92.0064 2.5088 24.4736 12.6976 42.2912 33.8944 50.176 59.7504 7.68 25.2416 4.9664 52.0192-7.68 75.264C329.5744 354.048 266.9568 372.8384 216.576 346.5728 203.9808 340.1216 188.6208 344.8832 182.0672 357.4784 175.5648 370.0224 180.4288 385.4848 193.024 391.9872c74.9056 38.9632 168.3456 10.8032 208.2304-62.464 19.3024-35.4304 23.4496-76.1856 11.6736-114.688-11.9296-39.1168-38.7584-71.168-75.5712-90.2656C314.6752 112.7936 289.9968 106.9056 265.2672 106.9056zM204.8 460.8C162.4576 460.8 128 495.2576 128 537.6S162.4576 614.4 204.8 614.4 281.6 579.9424 281.6 537.6 247.1424 460.8 204.8 460.8zM204.8 563.2C190.6688 563.2 179.2 551.7312 179.2 537.6S190.6688 512 204.8 512 230.4 523.4688 230.4 537.6 218.9312 563.2 204.8 563.2zM588.8 460.8c-112.9472 0-204.8 91.8528-204.8 204.8s91.8528 204.8 204.8 204.8C602.9312 870.4 614.4 858.9312 614.4 844.8s-11.4688-25.6-25.6-25.6c-84.6848 0-153.6-68.9152-153.6-153.6s68.9152-153.6 153.6-153.6 153.6 68.9152 153.6 153.6c0 22.3744-4.7104 43.9296-13.9264 64.1024-5.888 12.8512-0.3072 28.0576 12.544 33.9456 12.9024 5.888 28.0576 0.3072 33.9456-12.5952C787.3536 724.1216 793.6 695.3984 793.6 665.6 793.6 552.6528 701.7472 460.8 588.8 460.8zM772.4032-29.7472c-32.9216 0-65.28 15.8208-85.0432 45.056-15.36 22.6816-20.8896 49.9712-15.6672 76.8 5.2224 26.8288 20.5824 50.0736 43.3152 65.3312 22.528 15.3088 49.9712 20.9408 76.6976 15.6672 26.88-5.2224 50.1248-20.5824 65.4336-43.3152 7.8848-11.7248 4.8128-27.648-6.9632-35.5328-11.7248-7.7824-27.5968-4.864-35.5328 6.9632-7.6288 11.3664-19.2512 19.0464-32.7168 21.6576-13.5168 2.6624-27.0848-0.2048-38.2976-7.7824-11.4176-7.68-19.0976-19.3024-21.7088-32.7168-2.6112-13.4656 0.1536-27.0336 7.7824-38.3488 15.7696-23.3472 47.616-29.696 71.1168-13.8752 6.1952 4.1472 11.264 9.472 15.0528 15.7696 7.424 12.032 23.2448 15.872 35.2256 8.6016 12.032-7.3728 15.9232-23.0912 8.6016-35.2256-7.68-12.6464-17.8688-23.296-30.2592-31.6416C811.9296-24.1152 792.1152-29.7472 772.4032-29.7472zM844.8 460.8m-51.2 0a1 1 0 1 0 102.4 0 1 1 0 1 0-102.4 0Z"  horiz-adv-x="1178" />

    
    <glyph glyph-name="move1" unicode="&#58961;" d="M572 264v-180h120l-180-180-180 180h120v180zM452 504v180h-120l180 180 180-180h-120v-180zM392 324h-180v-120l-180 180 180 180v-120h180zM632 444h180v120l180-180-180-180v120h-180z"  horiz-adv-x="1024" />

    
    <glyph glyph-name="table" unicode="&#58978;" d="M958.885492 91.400942c0-47.333028-38.727023-86.059028-86.059028-86.059028H149.935336c-47.332005 0-86.059028 38.726-86.059028 86.059028v585.198116c0 47.332005 38.726 86.058005 86.059028 86.058005h722.892151c47.332005 0 86.059028-38.726 86.059028-86.058005v-585.198116zM339.264379 607.753063c0 9.6815-7.53051 17.21201-17.212011 17.212011H149.935336c-9.6815 0-17.21201-7.53051-17.21201-17.212011v-103.271038c0-9.680477 7.53051-17.210987 17.21201-17.210987h172.117032c9.6815 0 17.21201 7.529487 17.212011 17.210987V607.753063z m0-206.541053c0 9.6815-7.53051 17.21201-17.212011 17.212011H149.935336c-9.6815 0-17.21201-7.529487-17.21201-17.212011v-103.268991c0-9.682523 7.53051-17.21201 17.21201-17.212011h172.117032c9.6815 0 17.21201 7.529487 17.212011 17.212011V401.21201z m0-206.541053c0 9.6815-7.53051 17.210987-17.212011 17.210987H149.935336c-9.6815 0-17.21201-7.529487-17.21201-17.210987v-103.270015c0-9.6815 7.53051-17.210987 17.21201-17.210987h172.117032c9.6815 0 17.21201 7.529487 17.212011 17.210987V194.670957z m275.387047 413.082106c0 9.6815-7.53051 17.21201-17.21201 17.212011H425.322383c-9.682523 0-17.21201-7.53051-17.21201-17.212011v-103.271038c0-9.680477 7.529487-17.210987 17.21201-17.210987h172.117033c9.6815 0 17.21201 7.529487 17.21201 17.210987V607.753063z m0-206.541053c0 9.6815-7.53051 17.21201-17.21201 17.212011H425.322383c-9.682523 0-17.21201-7.529487-17.21201-17.212011v-103.268991c0-9.682523 7.529487-17.21201 17.21201-17.212011h172.117033c9.6815 0 17.21201 7.529487 17.21201 17.212011V401.21201z m0-206.541053c0 9.6815-7.53051 17.210987-17.21201 17.210987H425.322383c-9.682523 0-17.21201-7.529487-17.21201-17.210987v-103.270015c0-9.6815 7.529487-17.210987 17.21201-17.210987h172.117033c9.6815 0 17.21201 7.529487 17.21201 17.210987V194.670957z m275.387048 413.082106c0 9.6815-7.529487 17.21201-17.210987 17.212011H700.709431c-9.6815 0-17.210987-7.53051-17.210987-17.212011v-103.271038c0-9.680477 7.529487-17.210987 17.210987-17.210987h172.117033c9.6815 0 17.210987 7.529487 17.210987 17.210987V607.753063z m0-206.541053c0 9.6815-7.529487 17.21201-17.210987 17.212011H700.709431c-9.6815 0-17.210987-7.529487-17.210987-17.212011v-103.268991c0-9.682523 7.529487-17.21201 17.210987-17.212011h172.117033c9.6815 0 17.210987 7.529487 17.210987 17.212011V401.21201z m0-206.541053c0 9.6815-7.529487 17.210987-17.210987 17.210987H700.709431c-9.6815 0-17.210987-7.529487-17.210987-17.210987v-103.270015c0-9.6815 7.529487-17.210987 17.210987-17.210987h172.117033c9.6815 0 17.210987 7.529487 17.210987 17.210987V194.670957z"  horiz-adv-x="1024" />

    
    <glyph glyph-name="calendar" unicode="&#58918;" d="M352.050078 563.352831c-17.660218 0-32.234145 14.302751-32.234145 31.978319l0 95.934956c0 17.675568 14.573927 31.978319 32.234145 31.978319s32.234145-14.302751 32.234145-31.978319l0-95.934956C384.284223 577.655582 369.710296 563.352831 352.050078 563.352831zM786.78432 671.264563l-50.482765 0 0-71.826885c0-43.054585-20.940938-77.892021-63.956637-77.892021s-63.956637 34.837436-63.956637 77.892021l0 71.826885-192.381565 0 0-71.826885c0-43.054585-20.940938-77.892021-63.956637-77.892021s-63.956637 34.837436-63.956637 77.892021l0 71.826885-12.96222 0c-70.643943 0-146.673547-69.244061-146.673547-139.890051l0-383.739824c0-70.643943 76.029604-115.936499 146.673547-115.936499l511.653099 0c70.644967 0 109.153002 45.293579 109.153002 115.936499l0 383.739824C895.937322 602.019479 857.429287 671.264563 786.78432 671.264563zM831.469032 147.634688c0-35.32146-12.501732-51.468209-47.823192-51.468209l-511.653099 0c-35.32146 0-80.090083 16.146749-80.090083 51.468209L191.902658 479.906304l639.566374 0C831.469032 479.906304 831.469032 279.351592 831.469032 147.634688zM671.833265 563.352831c17.660218 0 31.722492 14.302751 31.722492 31.978319l0 95.934956c0 17.675568-14.062274 31.978319-31.722492 31.978319s-31.722492-14.302751-31.722492-31.978319l0-95.934956C640.110773 577.655582 654.17407 563.352831 671.833265 563.352831zM256.370948 415.438013l127.913275 0 0-96.190783-127.913275 0 0 96.190783ZM447.729208 415.438013l127.913275 0 0-96.190783-127.913275 0 0 96.190783ZM640.110773 415.438013l127.913275 0 0-96.190783-127.913275 0 0 96.190783ZM256.370948 255.802246l127.913275 0 0-96.190783-127.913275 0 0 96.190783ZM447.729208 255.802246l127.913275 0 0-96.190783-127.913275 0 0 96.190783ZM640.110773 255.802246l127.913275 0 0-96.190783-127.913275 0 0 96.190783Z"  horiz-adv-x="1024" />

    
    <glyph glyph-name="area-chart" unicode="&#58922;" d="M129.723 223.163v-191.274c0-35.114 63.758-63.757 63.758-63.757h701.338c0 0 64.691 10.398 64.691-18.556 0-28.89-30.76-44.394-30.76-44.394l-771.32 1.057c-92.4 0-91.528 102.236-91.528 102.236l-0 624.009c0 31.008 45.328 36.178 45.328 36.178 28.891 0 18.492-62.95 18.492-62.95v-318.789l-0.001-63.761zM841.689 529.717l118.276-494.833h-768.795v318.107l206.983 318.106 266.121-318.106z"  horiz-adv-x="1024" />

    
    <glyph glyph-name="scatter-chart" unicode="&#58930;" d="M127.285476 339.82843333000005l0-191.274348c0-35.113729 63.758116-63.759139 63.758116-63.759139l701.339276 0c0 0 64.690348 10.398838 64.690348-18.555611 0-28.887934-30.759561-44.394093-30.759561-44.394093l-771.319094 1.057075c-92.40148 0-91.527576 102.236476-91.527576 102.236476L63.466985 749.14886633c0 31.009248 45.328371 36.177967 45.328371 36.177967 28.891004 0 18.492166-62.949704 18.492166-62.949704L127.287523 403.58961933 127.285476 339.82843333000005zM731.490481 329.45824832999995m-77.434603 0a75.671 75.671 0 1 1 154.869207 0 75.671 75.671 0 1 1-154.869207 0ZM602.434174 441.30766233c38.010709 0 68.830645 30.818913 68.830645 68.830645s-30.818913 68.831668-68.830645 68.831668-68.832691-30.819936-68.832691-68.831668S564.421418 441.30766233 602.434174 441.30766233zM654.055878 613.3827403299999c38.009685 0 68.829622 30.818913 68.829622 68.831668 0 38.012755-30.817889 68.830645-68.829622 68.830645-38.011732 0-68.830645-30.817889-68.830645-68.830645C585.225233 644.20165233 616.044146 613.3827403299999 654.055878 613.3827403299999zM869.150748 665.00649133c33.255405 0 60.225663 26.962072 60.225663 60.226686 0 33.263591-26.971281 60.226686-60.225663 60.226686s-60.225663-26.963095-60.225663-60.226686C808.926108 691.9685623299999 835.895343 665.00649133 869.150748 665.00649133zM826.130955 458.51455633c38.011732 0 68.832691 30.818913 68.832691 68.831668 0 38.011732-30.819936 68.830645-68.832691 68.830645-38.011732 0-68.830645-30.818913-68.830645-68.830645C757.301334 489.33346933 788.119223 458.51455633 826.130955 458.51455633zM189.451328 277.83449733c0-33.263591 26.971281-60.225663 60.225663-60.225663 33.256428 0 60.226686 26.963095 60.226686 60.225663 0 33.264615-26.970258 60.226686-60.226686 60.226686C216.421586 338.06220733 189.451328 311.09911233 189.451328 277.83449733M361.526405 372.47599433000005c47.52234 0 86.037539 38.515199 86.037539 86.038562 0 47.51313-38.514175 86.037539-86.037539 86.037539-47.523363 0-86.037539-38.523385-86.037539-86.037539C275.487843 410.99221633 314.003042 372.47599433000005 361.526405 372.47599433000005zM378.733299 209.00282933000005c0-33.263591 26.970258-60.225663 60.22771-60.225663 33.255405 0 60.22771 26.963095 60.22771 60.225663 0 33.264615-26.972305 60.228733-60.22771 60.228733C405.70458 269.23258533 378.733299 242.26744433 378.733299 209.00282933000005zM542.205441 269.23258533c33.255405 0 60.226686 26.961048 60.226686 60.225663 0 33.262568-26.971281 60.22464-60.226686 60.22464s-60.225663-26.962072-60.225663-60.22464C481.979778 296.19363433 508.951059 269.23258533 542.205441 269.23258533z"  horiz-adv-x="1024" />

    
    <glyph glyph-name="Graph" unicode="&#59051;" d="M971.682-56.493l-83.507 0 0 41.879-41.879 0 0-41.879-83.382 0 0 41.879-41.879 0 0-41.879-83.507 0 0 41.879-41.879 0 0-41.879-83.507 0 0 41.879-41.879 0 0-41.879-83.507 0 0 41.879-41.879 0 0-41.879-183.942 0 220.273 132.377 108.992 318.576 161.905-284.596 313.748 522.768-71.627 43.039-240.209-400.234-182.908 321.46-159.209-465.09-217.953-130.998 0 862.283-83.507 0 0-1003.092 1003.092 0 0 125.386-41.879 0zM971.682 863.092l41.879 0 0-41.879-41.879 0zM846.296 863.092l41.879 0 0-41.879-41.879 0zM721.035 863.092l41.879 0 0-41.879-41.879 0zM595.648 863.092l41.879 0 0-41.879-41.879 0zM470.262 863.092l41.879 0 0-41.879-41.879 0zM344.876 863.092l41.879 0 0-41.879-41.879 0zM219.489 863.092l41.879 0 0-41.879-41.879 0zM94.103 863.092l41.879 0 0-41.879-41.879 0zM971.682 737.705l41.879 0 0-41.879-41.879 0zM846.296 737.705l41.879 0 0-41.879-41.879 0zM721.035 737.705l41.879 0 0-41.879-41.879 0zM595.648 737.705l41.879 0 0-41.879-41.879 0zM470.262 737.705l41.879 0 0-41.879-41.879 0zM344.876 737.705l41.879 0 0-41.879-41.879 0zM219.489 737.705l41.879 0 0-41.879-41.879 0zM94.103 737.705l41.879 0 0-41.879-41.879 0zM971.682 612.444l41.879 0 0-41.879-41.879 0zM721.035 612.444l41.879 0 0-41.879-41.879 0zM595.648 612.444l41.879 0 0-41.879-41.879 0zM344.876 612.444l41.879 0 0-41.879-41.879 0zM219.489 612.444l41.879 0 0-41.879-41.879 0zM94.103 612.444l41.879 0 0-41.879-41.879 0zM971.682 487.058l41.879 0 0-41.879-41.879 0zM595.648 487.058l41.879 0 0-41.879-41.879 0zM344.876 487.058l41.879 0 0-41.879-41.879 0zM219.489 487.058l41.879 0 0-41.879-41.879 0zM94.103 487.058l41.879 0 0-41.879-41.879 0zM971.682 361.609l41.879 0 0-41.879-41.879 0zM846.296 361.609l41.879 0 0-41.879-41.879 0zM219.489 361.609l41.879 0 0-41.879-41.879 0zM94.103 361.609l41.879 0 0-41.879-41.879 0zM971.682 236.222l41.879 0 0-41.879-41.879 0zM846.296 236.222l41.879 0 0-41.879-41.879 0zM470.262 236.222l41.879 0 0-41.879-41.879 0zM219.489 236.222l41.879 0 0-41.879-41.879 0zM94.103 236.222l41.879 0 0-41.879-41.879 0zM971.682 110.961l41.879 0 0-41.879-41.879 0zM846.296 110.961l41.879 0 0-41.879-41.879 0zM721.035 110.961l41.879 0 0-41.879-41.879 0zM470.262 110.961l41.879 0 0-41.879-41.879 0zM94.103 110.961l41.879 0 0-41.879-41.879 0z"  horiz-adv-x="1024" />

    
    <glyph glyph-name="iconloudoutu" unicode="&#58948;" d="M853.333333 448.00000033l-682.666667 0-85.333333 256 853.333333 0L853.333333 448.00000033zM768 234.66666633l-512 0-85.333333 170.666667 682.666667 0L768 234.66666633zM768 192.00000033000003l-512 0 85.333333-128 341.333333 0L768 192.00000033000003z"  horiz-adv-x="1024" />

    
    <glyph glyph-name="map" unicode="&#59474;" d="M637.2292832 608.7001888c0 69.16232533-56.0678688 125.23019413-125.23019413 125.23019413s-125.23019413-56.0678688-125.23019414-125.23019413S442.83767467 483.4690848 512 483.4690848 637.2292832 539.53786347 637.2292832 608.7001888zM461.9077408 608.7001888c0 27.62069333 22.47156587 50.0922592 50.0922592 50.0922592 27.6216032 0 50.0922592-22.47156587 50.0922592-50.0922592S539.6216032 558.60792853 512 558.60792853C484.37930667 558.60701867 461.9077408 581.0804053300001 461.9077408 608.7001888zM770.287787 594.4593070000001c0-0.031573-0.004267-0.06144-0.004267-0.093013l-0.151893-8.787627C770.23232 588.52608 770.285227 591.488 770.287787 594.4593070000001zM512 158.73729387000003c105.34638933 73.93826133 275.31946667 252.264448 275.50151147 449.65432853l0.00455146 0.30856533c0 152.158208-123.34785387 275.50606187-275.50606186 275.50606187S236.49393813 760.85748587 236.49393813 608.7001888C236.49393813 411.18196587 406.59899733 232.71378453 512 158.73729387000003zM512 809.06740587c110.280704 0 200.03953813-89.56404587 200.368128-199.770112l-0.155648-8.98571414c-0.0063712-0.3376928-0.00910187-0.67265387-0.01092267-1.00852586-4.74225813-134.23138133-109.85016853-267.57438613-200.20155733-345.27732587C419.52142187 333.5518432 311.63096213 471.32762987 311.63096213 608.7001888 311.63096213 719.18296213 401.51722667 809.06740587 512 809.06740587zM912.736256 684.40519147l-50.0922592 0 0-75.13793387 50.0922592 0c13.8098912 0 25.04567467-11.23578347 25.04567467-25.04567467l0-285.6122592-109.43237654 144.67072-43.13178986-67.54394986 143.47832853-189.68302934c2.58321067-3.41242347 5.72074667-6.1130528 9.0867488-8.3740448l0-193.69984c0-13.8098912-11.23578347-25.04567467-25.04567467-25.04567466L111.26283413-41.06649600000003c-13.8098912 0-25.04567467 11.23578347-25.04567466 25.04567467L86.21715947 55.792071469999996c1.08862613 0.98304 2.25189013 1.8450208 3.24039146 2.97642666l153.6145632 175.78666667 122.8454112-82.01102187c9.52820587-6.35153067 20.93966187-7.27995733 31.33530987-4.22252053l-108.19720533 145.8813152-31.711232 21.16448747c-15.65400213 10.46846613-36.71290347 7.68045547-49.13834667-6.5308448L86.21806933 169.25036052999997l0 414.97031147c0 13.8098912 11.23578347 25.04567467 25.04567467 25.04567467l50.356224 0 0 75.13793386-50.356224 0c-55.32967787 0-100.18451947-44.8530208-100.18451947-100.18451946l0-600.2424032c0-55.3305888 44.85484053-100.18360853 100.18451947-100.18360854l801.47342187 0c55.3305888 0 100.18451947 44.8530208 100.18451946 100.18360854L1012.92168533 584.2206719999999C1012.92077547 639.5512608 968.06775467 684.40519147 912.736256 684.40519147z"  horiz-adv-x="1024" />

    
    <glyph glyph-name="gauge" unicode="&#59078;" d="M415.744 207.872c23.211008 38.228992 96.256 135.168 219.136 290.816 122.88 155.648 189.099008 230.740992 198.656 225.28 8.192-4.096-24.576-98.987008-98.304-284.672-73.728-185.684992-120.832-296.96-141.312-333.824-34.132992-58.708992-80.555008-70.996992-139.264-36.864-58.708992 34.132992-71.68 80.555008-38.912 139.264 0 0 0 0 0 0m96.256 389.12c-114.688 0-211.627008-43.348992-290.816-130.048-79.188992-86.699008-118.784-192.852992-118.784-318.464 0-20.48 0.683008-36.180992 2.048-47.104 1.364992-15.019008-2.731008-27.648-12.288-37.888-9.556992-10.24-21.163008-16.043008-34.816-17.408-13.652992-1.364992-25.940992 2.731008-36.864 12.288-10.923008 9.556992-17.067008 21.163008-18.432 34.816 0 5.460992-0.340992 14.336-1.024 26.624-0.683008 12.288-1.024 21.844992-1.024 28.672 0 154.283008 49.492992 284.672 148.48 391.168 98.987008 106.496 220.16 159.744 363.52 159.744 49.152 0 94.891008-6.144 137.216-18.432 0 0-71.68-88.064-71.68-88.064-27.307008 2.731008-49.152 4.096-65.536 4.096 0 0 0 0 0 0m370.688-63.488c94.208-105.131008 141.312-233.472 141.312-385.024 0-25.940992-0.683008-45.056-2.048-57.344-1.364992-13.652992-6.827008-24.916992-16.384-33.792-9.556992-8.875008-21.163008-13.312-34.816-13.312 0 0-4.096 0-4.096 0-15.019008 2.731008-26.964992 9.556992-35.84 20.48-8.875008 10.923008-12.628992 23.211008-11.264 36.864 1.364992 9.556992 2.048 25.259008 2.048 47.104 0 102.4-27.307008 193.876992-81.92 274.432 4.096 9.556992 10.923008 26.964992 20.48 52.224 9.556992 25.259008 17.067008 44.715008 22.528 58.368 0 0 0 0 0 0"  horiz-adv-x="1024" />

    
    </font>
</defs>
</svg>
