
<svg width="140px" height="28px" viewBox="0 0 140 28" version="1.1" xmlns="http://www.w3.org/2000/svg" xmlns:xlink="http://www.w3.org/1999/xlink">
  <!-- Generator: Sketch 46.2 (44496) - http://www.bohemiancoding.com/sketch -->
  <desc>Created with Sketch.</desc>
  <defs>
    <polygon id="path-1" points="0 28 140 28 140 0 0 0"></polygon>
  </defs>
  <g id="Page-1" stroke="none" stroke-width="1" fill="none" fill-rule="evenodd">
    <g id="首页" transform="translate(-618.000000, -157.000000)">
      <g id="Page-1" transform="translate(618.000000, 157.000000)">
        <path d="M8,28 L0,28 L0,18.1672899 C0,13.6566901 3.58179046,10 8,10 L8,28 Z" id="Fill-1" fill="#FFFFFF"></path>
        <path d="M31,28 L23,28 L23,18.2282813 C23,13.6839974 26.5817905,10 31,10 L31,10 L31,28 Z" id="Fill-3" fill="#FFFFFF"></path>
        <path d="M80,28 L72,28 L72,18.2282813 C72,13.6839974 75.5817905,10 80,10 L80,28 Z" id="Fill-5" fill="#FFFFFF"></path>
        <mask id="mask-2" fill="white">
          <use xlink:href="#path-1"></use>
        </mask>
        <g id="Clip-8"></g>
        <polygon id="Fill-7" fill="#FFFFFF" mask="url(#mask-2)" points="33 28 41 28 41 10 33 10"></polygon>
        <path d="M93,28 L85,28 L85,18.2282813 C85,13.6839974 88.5817905,10 93,10 L93,10 L93,28 Z" id="Fill-9" fill="#FFFFFF" mask="url(#mask-2)"></path>
        <polygon id="Fill-10" fill="#FFFFFF" mask="url(#mask-2)" points="95 28 103 28 103 10 95 10"></polygon>
        <polygon id="Fill-11" fill="#FFFFFF" mask="url(#mask-2)" points="117 18 125 18 125 10 117 10"></polygon>
        <polygon id="Fill-12" fill="#FFFFFF" mask="url(#mask-2)" points="117 28 117 22 125 22 125 28"></polygon>
        <path d="M116,28 L108,28 L108,18.2282813 C108,13.6839974 111.58179,10 116,10 L116,10 L116,28 Z" id="Fill-13" fill="#FFFFFF" mask="url(#mask-2)"></path>
        <path d="M140,28 L132,28 L132,18.2282813 C132,13.6839974 135.58179,10 140,10 L140,10 L140,28 Z" id="Fill-14" fill="#FFFFFF" mask="url(#mask-2)"></path>
        <polygon id="Fill-15" fill="#FFFFFF" mask="url(#mask-2)" points="43 28 49 28 49 22 43 22"></polygon>
        <polygon id="Fill-16" fill="#FFFFFF" mask="url(#mask-2)" points="10 0 10 17.3490518 10 28 18 28 18 17.3490518 18 0"></polygon>
        <polyline id="Fill-17" fill="#FFFFFF" mask="url(#mask-2)" points="62.4719904 27.9633775 72.6822 3.20141258 139 3.20141258 139 0 65.8409953 0 65.8258196 0 65.8258196 0.0457780636 58.5900468 16.2411414 51.396766 0.182807067 51.396766 0 51.3360632 0 23 0 23 3.20141258 44.4978937 3.20141258 54.7214579 28 55.1481985 28 62.0318951 28 62.4598498 28"></polyline>
        <polygon id="Fill-18" fill="#FFFFFF" mask="url(#mask-2)" points="117 18 125 18 125 10 117 10"></polygon>
        <polygon id="Fill-19" fill="#FFFFFF" mask="url(#mask-2)" points="117 28 125 28 125 20 117 20"></polygon>
      </g>
    </g>
  </g>
</svg>
